<svg width="149" height="51" viewBox="0 0 149 51" fill="none" xmlns="http://www.w3.org/2000/svg">
<g clip-path="url(#clip0_610_635)">
<path d="M137.135 0.563883H11.8721C11.4155 0.563883 10.9644 0.563883 10.509 0.566373C10.1278 0.568863 9.74965 0.576098 9.36479 0.582186C8.52869 0.592025 7.69455 0.665582 6.86963 0.802217C6.04587 0.941827 5.24791 1.20503 4.50274 1.58293C3.75849 1.96402 3.07845 2.45921 2.48728 3.05054C1.89301 3.6402 1.39764 4.32177 1.02022 5.06904C0.641752 5.81483 0.379324 6.614 0.241995 7.43897C0.103361 8.26289 0.028761 9.09631 0.0188641 9.93176C0.00730904 10.3135 0.0060888 10.6966 0 11.0784V39.8591C0.0060888 40.2458 0.00730904 40.6203 0.0188641 41.0071C0.028764 41.8425 0.103364 42.6758 0.241995 43.4997C0.378945 44.3252 0.641388 45.1248 1.02022 45.8709C1.39747 46.6157 1.89291 47.2945 2.48728 47.8809C3.0762 48.4749 3.75669 48.9704 4.50274 49.3486C5.2479 49.7275 6.04578 49.9923 6.86963 50.134C7.69469 50.2696 8.52874 50.3431 9.36479 50.3542C9.74965 50.3626 10.1278 50.3675 10.509 50.3675C10.9644 50.37 11.4156 50.37 11.8721 50.37H137.135C137.582 50.37 138.037 50.37 138.484 50.3675C138.864 50.3675 139.253 50.3626 139.632 50.3542C140.467 50.3437 141.299 50.2701 142.123 50.134C142.949 49.9913 143.75 49.7266 144.499 49.3486C145.244 48.9702 145.924 48.4747 146.512 47.8809C147.105 47.2922 147.602 46.6139 147.983 45.8709C148.359 45.1243 148.619 44.3247 148.754 43.4997C148.893 42.6757 148.97 41.8425 148.985 41.0071C148.99 40.6203 148.99 40.2458 148.99 39.8591C149 39.4068 149 38.9569 149 38.4972V12.4378C149 11.9818 149 11.5295 148.99 11.0784C148.99 10.6966 148.99 10.3135 148.985 9.93171C148.97 9.09619 148.893 8.26295 148.754 7.43892C148.619 6.61443 148.359 5.81532 147.983 5.06899C147.215 3.57117 145.996 2.35195 144.499 1.58282C143.75 1.20584 142.949 0.942708 142.123 0.802105C141.299 0.664868 140.467 0.591286 139.632 0.582012C139.253 0.575936 138.864 0.568639 138.484 0.566211C138.037 0.563721 137.582 0.563721 137.135 0.563721V0.563883Z" fill="black"/>
<path d="M10.5152 49.2804C10.1358 49.2804 9.76559 49.2755 9.38919 49.2671C8.60945 49.2569 7.83154 49.189 7.06182 49.064C6.34411 48.9404 5.64883 48.7104 4.99893 48.3818C4.35499 48.0558 3.76766 47.6284 3.25945 47.1159C2.74389 46.6095 2.31465 46.0221 1.98876 45.3771C1.65928 44.7279 1.43126 44.032 1.31264 43.3136C1.18455 42.5418 1.11524 41.7613 1.10533 40.979C1.09743 40.7164 1.0871 39.842 1.0871 39.842V11.0783C1.0871 11.0783 1.0981 10.2174 1.10539 9.96446C1.11488 9.18336 1.18379 8.4041 1.3115 7.63345C1.43033 6.91316 1.65853 6.21525 1.98819 5.56388C2.31288 4.91928 2.73973 4.33147 3.25219 3.82322C3.76408 3.31015 4.35328 2.88055 4.99832 2.55009C5.64673 2.22247 6.34069 1.99416 7.05696 1.8728C7.8292 1.7465 8.60981 1.67822 9.39225 1.66852L10.5158 1.65332H138.478L139.615 1.66913C140.391 1.67835 141.164 1.74602 141.929 1.87158C142.653 1.99446 143.354 2.22437 144.01 2.55374C145.302 3.2197 146.353 4.27332 147.017 5.56692C147.341 6.21379 147.566 6.906 147.683 7.62008C147.812 8.39705 147.885 9.18243 147.9 9.96994C147.903 10.3226 147.903 10.7013 147.903 11.0783C147.913 11.5452 147.913 11.9897 147.913 12.4377V38.4971C147.913 38.9495 147.913 39.3909 147.903 39.8359C147.903 40.2408 147.903 40.6118 147.898 40.9935C147.884 41.767 147.813 42.5384 147.686 43.3014C147.569 44.0249 147.343 44.7263 147.013 45.3808C146.685 46.0189 146.258 46.6012 145.749 47.1062C145.24 47.6215 144.652 48.0514 144.006 48.3794C143.352 48.7106 142.652 48.9414 141.929 49.064C141.16 49.1897 140.382 49.2576 139.602 49.2671C139.237 49.2755 138.855 49.2804 138.484 49.2804L137.135 49.2829L10.5152 49.2804Z" fill="black"/>
<path d="M30.8406 25.8408C30.8539 24.8016 31.13 23.7825 31.643 22.8786C32.1561 21.9747 32.8894 21.2152 33.7748 20.6709C33.2124 19.8676 32.4703 19.2065 31.6076 18.7401C30.745 18.2737 29.7854 18.0149 28.8052 17.9842C26.7143 17.7648 24.6873 19.2354 23.6218 19.2354C22.5357 19.2354 20.8952 18.006 19.1287 18.0424C17.986 18.0793 16.8724 18.4116 15.8964 19.0068C14.9203 19.6021 14.1151 20.44 13.5592 21.439C11.1511 25.6083 12.9473 31.7357 15.2541 35.1059C16.4082 36.7561 17.7571 38.5995 19.522 38.5342C21.2491 38.4625 21.8942 37.4328 23.9789 37.4328C26.0443 37.4328 26.6495 38.5342 28.4503 38.4926C30.3035 38.4625 31.4712 36.835 32.5848 35.1691C33.414 33.9932 34.0521 32.6936 34.4755 31.3185C33.3988 30.8631 32.4799 30.1008 31.8336 29.1267C31.1872 28.1527 30.8418 27.0099 30.8406 25.8408Z" fill="white"/>
<path d="M27.4391 15.768C28.4496 14.5549 28.9474 12.9958 28.8269 11.4216C27.2831 11.5838 25.8571 12.3216 24.8329 13.4881C24.3322 14.058 23.9487 14.7209 23.7044 15.4391C23.46 16.1573 23.3596 16.9165 23.4089 17.6735C24.181 17.6815 24.9449 17.5141 25.643 17.1841C26.3411 16.854 26.9553 16.3698 27.4391 15.768Z" fill="white"/>
<path d="M52.6721 34.3563H46.7783L45.3629 38.5355H42.8665L48.449 23.0732H51.0427L56.6252 38.5355H54.0862L52.6721 34.3563ZM47.3887 32.4277H52.0605L49.7575 25.645H49.693L47.3887 32.4277Z" fill="white"/>
<path d="M68.6812 32.8996C68.6812 36.4028 66.8061 38.6536 63.9766 38.6536C63.2598 38.6911 62.547 38.5259 61.9197 38.1771C61.2924 37.8283 60.776 37.3099 60.4296 36.6812H60.3761V42.265H58.0621V27.2624H60.3019V29.1374H60.3445C60.7068 28.5117 61.2319 27.996 61.864 27.6451C62.496 27.2941 63.2114 27.1211 63.934 27.1444C66.7951 27.1444 68.6812 29.4061 68.6812 32.8996ZM66.3027 32.8996C66.3027 30.6172 65.1232 29.1167 63.3236 29.1167C61.5556 29.1167 60.3664 30.6488 60.3664 32.8996C60.3664 35.171 61.5556 36.6922 63.3236 36.6922C65.1232 36.6922 66.3027 35.2027 66.3027 32.8996Z" fill="white"/>
<path d="M81.0889 32.8996C81.0889 36.4028 79.2139 38.6536 76.3844 38.6536C75.6676 38.6911 74.9547 38.5259 74.3274 38.1771C73.7001 37.8283 73.1837 37.3099 72.8374 36.6812H72.7838V42.265H70.4698V27.2624H72.7097V29.1374H72.7522C73.1145 28.5117 73.6396 27.996 74.2717 27.6451C74.9038 27.2941 75.6192 27.1211 76.3418 27.1444C79.203 27.1444 81.0889 29.4061 81.0889 32.8996ZM78.7105 32.8996C78.7105 30.6172 77.531 29.1167 75.7314 29.1167C73.9634 29.1167 72.7741 30.6488 72.7741 32.8996C72.7741 35.171 73.9634 36.6922 75.7314 36.6922C77.531 36.6922 78.7105 35.2026 78.7105 32.8996H78.7105Z" fill="white"/>
<path d="M89.2898 34.2274C89.4613 35.7607 90.9509 36.7675 92.9864 36.7675C94.9368 36.7675 96.34 35.7607 96.34 34.3781C96.34 33.1779 95.4937 32.4593 93.4898 31.9668L91.4859 31.4841C88.6466 30.7983 87.3285 29.4704 87.3285 27.3157C87.3285 24.6479 89.6534 22.8154 92.9548 22.8154C96.222 22.8154 98.4619 24.6479 98.5373 27.3157H96.2014C96.0615 25.7727 94.786 24.8412 92.9219 24.8412C91.0578 24.8412 89.7823 25.7836 89.7823 27.1552C89.7823 28.2484 90.597 28.8916 92.5899 29.3841L94.2935 29.8024C97.466 30.5526 98.7841 31.827 98.7841 34.0886C98.7841 36.9814 96.4798 38.7932 92.8149 38.7932C89.3858 38.7932 87.0706 37.024 86.9211 34.2272L89.2898 34.2274Z" fill="white"/>
<path d="M103.778 24.5945V27.2623H105.922V29.0948H103.778V35.3096C103.778 36.2751 104.208 36.725 105.15 36.725C105.405 36.7206 105.659 36.7027 105.911 36.6714V38.493C105.488 38.5721 105.057 38.608 104.626 38.6C102.344 38.6 101.454 37.7427 101.454 35.5564V29.0948H99.8144V27.2623H101.453V24.5945H103.778Z" fill="white"/>
<path d="M107.164 32.8994C107.164 29.3524 109.253 27.1235 112.51 27.1235C115.779 27.1235 117.858 29.3524 117.858 32.8994C117.858 36.4561 115.79 38.6752 112.51 38.6752C109.232 38.6752 107.164 36.4561 107.164 32.8994ZM115.5 32.8994C115.5 30.4662 114.385 29.0302 112.51 29.0302C110.635 29.0302 109.522 30.4772 109.522 32.8994C109.522 35.3423 110.635 36.7674 112.51 36.7674C114.385 36.7674 115.5 35.3423 115.5 32.8994H115.5Z" fill="white"/>
<path d="M119.766 27.2623H121.973V29.181H122.027C122.176 28.5818 122.527 28.0522 123.021 27.6813C123.515 27.3103 124.121 27.1207 124.738 27.1443C125.005 27.1434 125.271 27.1723 125.531 27.2306V29.3951C125.194 29.2922 124.843 29.245 124.491 29.2552C124.155 29.2416 123.82 29.3009 123.509 29.429C123.198 29.5571 122.918 29.751 122.689 29.9974C122.46 30.2438 122.287 30.5369 122.182 30.8565C122.077 31.176 122.042 31.5146 122.08 31.8489V38.5355H119.766L119.766 27.2623Z" fill="white"/>
<path d="M136.2 35.2243C135.889 37.2708 133.896 38.6752 131.346 38.6752C128.066 38.6752 126.031 36.478 126.031 32.9529C126.031 29.4169 128.077 27.1235 131.248 27.1235C134.367 27.1235 136.329 29.2661 136.329 32.6842V33.477H128.367V33.6168C128.33 34.0317 128.382 34.4496 128.519 34.8429C128.656 35.2362 128.875 35.5958 129.162 35.8978C129.449 36.1998 129.797 36.4373 130.183 36.5946C130.568 36.7518 130.983 36.8253 131.399 36.8099C131.946 36.8612 132.495 36.7345 132.964 36.4488C133.433 36.1631 133.797 35.7337 134.003 35.2243L136.2 35.2243ZM128.378 31.8597H134.014C134.034 31.4867 133.978 31.1134 133.847 30.7632C133.717 30.4131 133.516 30.0937 133.256 29.825C132.996 29.5563 132.684 29.3442 132.339 29.202C131.993 29.0598 131.622 28.9905 131.248 28.9986C130.872 28.9963 130.498 29.0687 130.149 29.2116C129.801 29.3545 129.484 29.565 129.217 29.831C128.95 30.097 128.738 30.4132 128.594 30.7614C128.45 31.1096 128.377 31.4829 128.378 31.8597V31.8597Z" fill="white"/>
<path d="M47.0999 11.4354C47.585 11.4006 48.0718 11.4739 48.5252 11.65C48.9786 11.8261 49.3872 12.1007 49.7217 12.4538C50.0561 12.807 50.308 13.2299 50.4591 13.6922C50.6103 14.1545 50.657 14.6446 50.5958 15.1271C50.5958 17.5007 49.313 18.8651 47.0999 18.8651H44.4163V11.4354H47.0999ZM45.5702 17.8143H46.971C47.3177 17.8351 47.6646 17.7782 47.9865 17.648C48.3084 17.5177 48.5972 17.3173 48.8319 17.0613C49.0666 16.8054 49.2413 16.5003 49.3432 16.1683C49.4452 15.8363 49.4718 15.4858 49.4212 15.1423C49.4681 14.8 49.4388 14.4517 49.3353 14.1221C49.2318 13.7926 49.0567 13.49 48.8225 13.2361C48.5884 12.9822 48.3009 12.7832 47.9808 12.6534C47.6607 12.5236 47.3159 12.4662 46.971 12.4854H45.5702V17.8143Z" fill="white"/>
<path d="M51.8997 16.0593C51.8644 15.6908 51.9066 15.3191 52.0234 14.9678C52.1402 14.6166 52.3292 14.2937 52.5782 14.0198C52.8271 13.7459 53.1306 13.527 53.4691 13.3773C53.8076 13.2275 54.1736 13.1501 54.5438 13.1501C54.9139 13.1501 55.28 13.2275 55.6185 13.3773C55.957 13.527 56.2604 13.7459 56.5094 14.0198C56.7583 14.2937 56.9473 14.6166 57.0642 14.9678C57.181 15.3191 57.2231 15.6908 57.1879 16.0593C57.2238 16.4281 57.1822 16.8004 57.0656 17.1522C56.9491 17.504 56.7603 17.8275 56.5112 18.1019C56.2622 18.3764 55.9585 18.5957 55.6197 18.7458C55.2809 18.8959 54.9144 18.9734 54.5438 18.9734C54.1732 18.9734 53.8067 18.8959 53.4679 18.7458C53.129 18.5957 52.8253 18.3764 52.5763 18.1019C52.3273 17.8275 52.1385 17.504 52.0219 17.1522C51.9054 16.8004 51.8637 16.4281 51.8997 16.0593ZM56.0497 16.0593C56.0497 14.8439 55.5038 14.1332 54.5456 14.1332C53.5838 14.1332 53.0427 14.8439 53.0427 16.0593C53.0427 17.2844 53.5838 17.9897 54.5456 17.9897C55.5038 17.9896 56.0498 17.2795 56.0498 16.0593H56.0497Z" fill="white"/>
<path d="M64.2171 18.8651H63.0692L61.9104 14.7357H61.8228L60.6689 18.8651H59.5319L57.9865 13.2583H59.1088L60.1132 17.5366H60.1959L61.3486 13.2583H62.4102L63.5629 17.5366H63.6504L64.65 13.2583H65.7565L64.2171 18.8651Z" fill="white"/>
<path d="M67.056 13.258H68.1212V14.1487H68.2038C68.3441 13.8288 68.5807 13.5607 68.8806 13.3816C69.1805 13.2025 69.5289 13.1215 69.877 13.1498C70.1498 13.1293 70.4238 13.1704 70.6785 13.2702C70.9333 13.3699 71.1623 13.5257 71.3487 13.7259C71.5351 13.9262 71.674 14.1659 71.7552 14.4271C71.8364 14.6884 71.8577 14.9646 71.8177 15.2352V18.8648H70.7112V15.5131C70.7112 14.612 70.3196 14.1639 69.5013 14.1639C69.3161 14.1553 69.1312 14.1868 68.9593 14.2563C68.7874 14.3259 68.6325 14.4317 68.5054 14.5667C68.3782 14.7016 68.2817 14.8625 68.2225 15.0382C68.1634 15.214 68.1429 15.4004 68.1625 15.5848V18.8649H67.056L67.056 13.258Z" fill="white"/>
<path d="M73.5809 11.0696H74.6874V18.8652H73.5809V11.0696Z" fill="white"/>
<path d="M76.2263 16.0594C76.1911 15.6909 76.2332 15.3191 76.3501 14.9679C76.467 14.6167 76.656 14.2937 76.905 14.0198C77.1539 13.7459 77.4574 13.527 77.7959 13.3773C78.1345 13.2275 78.5005 13.1501 78.8707 13.1501C79.2409 13.1501 79.607 13.2275 79.9455 13.3773C80.284 13.527 80.5875 13.7459 80.8365 14.0198C81.0855 14.2937 81.2744 14.6167 81.3913 14.9679C81.5082 15.3191 81.5504 15.6909 81.5151 16.0594C81.551 16.4283 81.5093 16.8005 81.3928 17.1523C81.2762 17.5041 81.0873 17.8276 80.8383 18.1021C80.5892 18.3765 80.2855 18.5958 79.9467 18.7459C79.6078 18.896 79.2413 18.9735 78.8707 18.9735C78.5001 18.9735 78.1336 18.896 77.7948 18.7459C77.4559 18.5958 77.1522 18.3765 76.9032 18.1021C76.6541 17.8276 76.4652 17.5041 76.3487 17.1523C76.2321 16.8005 76.1904 16.4283 76.2263 16.0594ZM80.3764 16.0594C80.3764 14.844 79.8304 14.1333 78.8722 14.1333C77.9104 14.1333 77.3693 14.844 77.3693 16.0594C77.3693 17.2845 77.9104 17.9898 78.8722 17.9898C79.8304 17.9897 80.3764 17.2796 80.3764 16.0594H80.3764Z" fill="white"/>
<path d="M82.6796 17.2796C82.6796 16.2703 83.431 15.6885 84.7649 15.6058L86.2837 15.5182V15.0343C86.2837 14.4421 85.8922 14.1077 85.1358 14.1077C84.5181 14.1077 84.0901 14.3345 83.9673 14.7309H82.896C83.0091 13.7679 83.915 13.1501 85.1869 13.1501C86.5926 13.1501 87.3854 13.8499 87.3854 15.0343V18.8652H86.3202V18.0773H86.2326C86.0549 18.3599 85.8054 18.5903 85.5095 18.745C85.2136 18.8996 84.882 18.973 84.5485 18.9576C84.3131 18.9821 84.0752 18.9569 83.8502 18.8839C83.6251 18.8108 83.4178 18.6913 83.2417 18.5332C83.0657 18.3751 82.9247 18.1819 82.8278 17.966C82.731 17.75 82.6805 17.5162 82.6796 17.2796ZM86.2837 16.8005V16.3317L84.9145 16.4193C84.1424 16.4709 83.7922 16.7336 83.7922 17.2279C83.7922 17.7325 84.2299 18.0262 84.8319 18.0262C85.0082 18.044 85.1864 18.0262 85.3557 17.9738C85.5251 17.9214 85.6822 17.8355 85.8176 17.7211C85.9531 17.6067 86.0641 17.4663 86.1442 17.3081C86.2243 17.15 86.2717 16.9773 86.2837 16.8005Z" fill="white"/>
<path d="M88.8397 16.0593C88.8397 14.2877 89.7504 13.1653 91.167 13.1653C91.5174 13.1492 91.8652 13.2331 92.1697 13.4073C92.4741 13.5815 92.7227 13.8387 92.8864 14.149H92.9691V11.0696H94.0756V18.8652H93.0153V17.9793H92.9278C92.7514 18.2875 92.4942 18.5415 92.1838 18.714C91.8735 18.8864 91.5218 18.9706 91.167 18.9576C89.7407 18.9576 88.8397 17.8353 88.8397 16.0593ZM89.9827 16.0593C89.9827 17.2485 90.5433 17.9641 91.4808 17.9641C92.4134 17.9641 92.9898 17.2382 92.9898 16.0642C92.9898 14.8956 92.4074 14.1594 91.4808 14.1594C90.5493 14.1594 89.9827 14.8798 89.9827 16.0593H89.9827Z" fill="white"/>
<path d="M98.6537 16.0593C98.6184 15.6908 98.6606 15.3191 98.7774 14.9678C98.8943 14.6166 99.0832 14.2937 99.3322 14.0198C99.5812 13.7459 99.8846 13.527 100.223 13.3773C100.562 13.2275 100.928 13.1501 101.298 13.1501C101.668 13.1501 102.034 13.2275 102.373 13.3773C102.711 13.527 103.014 13.7459 103.263 14.0198C103.512 14.2937 103.701 14.6166 103.818 14.9678C103.935 15.3191 103.977 15.6908 103.942 16.0593C103.978 16.4281 103.936 16.8004 103.82 17.1522C103.703 17.504 103.514 17.8275 103.265 18.1019C103.016 18.3764 102.713 18.5957 102.374 18.7458C102.035 18.8959 101.668 18.9734 101.298 18.9734C100.927 18.9734 100.561 18.8959 100.222 18.7458C99.8831 18.5957 99.5794 18.3764 99.3304 18.1019C99.0813 17.8275 98.8925 17.504 98.7759 17.1522C98.6594 16.8004 98.6178 16.4281 98.6537 16.0593ZM102.804 16.0593C102.804 14.8439 102.258 14.1332 101.3 14.1332C100.338 14.1332 99.7967 14.8439 99.7967 16.0593C99.7967 17.2844 100.338 17.9897 101.3 17.9897C102.258 17.9896 102.804 17.2795 102.804 16.0593Z" fill="white"/>
<path d="M105.427 13.258H106.492V14.1487H106.575C106.715 13.8288 106.952 13.5607 107.252 13.3816C107.552 13.2025 107.9 13.1215 108.248 13.1498C108.521 13.1293 108.795 13.1704 109.05 13.2702C109.304 13.3699 109.533 13.5257 109.72 13.7259C109.906 13.9262 110.045 14.1659 110.126 14.4271C110.207 14.6884 110.229 14.9646 110.189 15.2352V18.8648H109.082V15.5131C109.082 14.612 108.691 14.1639 107.872 14.1639C107.687 14.1553 107.502 14.1868 107.33 14.2563C107.158 14.3259 107.004 14.4317 106.876 14.5667C106.749 14.7016 106.653 14.8625 106.594 15.0382C106.534 15.214 106.514 15.4004 106.534 15.5848V18.8649H105.427V13.258Z" fill="white"/>
<path d="M116.441 11.8623V13.2838H117.656V14.2158H116.441V17.0989C116.441 17.6862 116.683 17.9434 117.234 17.9434C117.375 17.9429 117.516 17.9344 117.656 17.9178V18.8395C117.457 18.8751 117.256 18.894 117.054 18.8961C115.823 18.8961 115.333 18.4632 115.333 17.3822V14.2158H114.443V13.2837H115.333V11.8623H116.441Z" fill="white"/>
<path d="M119.168 11.0696H120.264V14.1594H120.352C120.499 13.8365 120.742 13.5668 121.048 13.387C121.354 13.2073 121.708 13.1263 122.061 13.155C122.333 13.1402 122.604 13.1855 122.856 13.2877C123.108 13.3898 123.334 13.5463 123.519 13.746C123.703 13.9456 123.841 14.1835 123.923 14.4426C124.005 14.7018 124.029 14.9758 123.992 15.2452V18.8652H122.885V15.5182C122.885 14.6226 122.468 14.1691 121.686 14.1691C121.496 14.1535 121.304 14.1796 121.125 14.2457C120.946 14.3117 120.784 14.4161 120.649 14.5515C120.515 14.6869 120.412 14.8501 120.347 15.0295C120.282 15.209 120.257 15.4005 120.274 15.5905V18.8651H119.168L119.168 11.0696Z" fill="white"/>
<path d="M130.444 17.3514C130.294 17.8638 129.968 18.3071 129.524 18.6036C129.08 18.9002 128.545 19.0311 128.014 18.9735C127.645 18.9833 127.278 18.9125 126.939 18.7662C126.599 18.6198 126.296 18.4014 126.05 18.1261C125.803 17.8507 125.62 17.525 125.512 17.1716C125.404 16.8182 125.374 16.4456 125.424 16.0795C125.375 15.7123 125.406 15.3389 125.513 14.9844C125.621 14.63 125.804 14.3028 126.049 14.025C126.294 13.7472 126.596 13.5254 126.934 13.3745C127.272 13.2236 127.639 13.1471 128.01 13.1502C129.57 13.1502 130.511 14.2161 130.511 15.9767V16.3628H126.552V16.4249C126.534 16.6306 126.56 16.8377 126.628 17.0329C126.695 17.2281 126.802 17.407 126.943 17.5582C127.084 17.7095 127.254 17.8297 127.444 17.9111C127.634 17.9925 127.838 18.0334 128.045 18.0311C128.31 18.0629 128.578 18.0152 128.815 17.8942C129.053 17.7731 129.249 17.5842 129.379 17.3514L130.444 17.3514ZM126.552 15.5445H129.384C129.398 15.3563 129.372 15.1673 129.309 14.9896C129.245 14.8119 129.145 14.6494 129.015 14.5126C128.885 14.3758 128.728 14.2677 128.554 14.1953C128.38 14.1229 128.192 14.0877 128.004 14.092C127.812 14.0896 127.622 14.1255 127.445 14.1977C127.268 14.2698 127.107 14.3767 126.971 14.5121C126.836 14.6475 126.729 14.8086 126.657 14.9859C126.585 15.1632 126.549 15.3531 126.552 15.5445H126.552Z" fill="white"/>
</g>
<defs>
<clipPath id="clip0_610_635">
<rect width="149" height="49.8061" fill="white" transform="translate(0 0.563965)"/>
</clipPath>
</defs>
</svg>
