<svg width="214" height="215" viewBox="0 0 214 215" fill="none" xmlns="http://www.w3.org/2000/svg">
<rect y="0.723633" width="214" height="214" rx="16" fill="#DFE1F1"/>
<g clip-path="url(#clip0_0_1058)">
<path d="M125.667 116.789C125.523 116.934 125.351 117.049 125.162 117.128C124.974 117.206 124.771 117.247 124.567 117.247C124.362 117.247 124.16 117.206 123.971 117.128C123.783 117.049 123.611 116.934 123.467 116.789L121.268 114.59C121.123 114.446 121.008 114.274 120.929 114.086C120.851 113.897 120.81 113.695 120.81 113.49C120.81 113.286 120.851 113.083 120.929 112.895C121.008 112.706 121.123 112.534 121.268 112.39L125.667 107.991C125.811 107.847 125.982 107.732 126.171 107.654C126.36 107.575 126.562 107.535 126.766 107.535C126.971 107.535 127.173 107.575 127.362 107.654C127.55 107.732 127.722 107.847 127.866 107.991L130.066 110.191C130.211 110.335 130.326 110.506 130.404 110.695C130.483 110.884 130.523 111.086 130.523 111.291C130.523 111.495 130.483 111.697 130.404 111.886C130.326 112.075 130.211 112.246 130.066 112.39L125.667 116.789ZM102.333 93.4561C102.189 93.6011 102.018 93.7161 101.829 93.7946C101.64 93.8731 101.438 93.9135 101.234 93.9135C101.029 93.9135 100.827 93.8731 100.638 93.7946C100.449 93.7161 100.278 93.6011 100.134 93.4561L97.9342 91.2565C97.7893 91.1124 97.6742 90.9411 97.5957 90.7523C97.5172 90.5636 97.4768 90.3612 97.4768 90.1568C97.4768 89.9523 97.5172 89.75 97.5957 89.5612C97.6742 89.3725 97.7893 89.2011 97.9342 89.057L102.333 84.6579C102.478 84.5133 102.649 84.3986 102.838 84.3203C103.027 84.2421 103.229 84.2018 103.433 84.2018C103.637 84.2018 103.84 84.2421 104.028 84.3203C104.217 84.3986 104.389 84.5133 104.533 84.6579L106.732 86.8574C106.877 87.0016 106.992 87.1729 107.071 87.3617C107.149 87.5504 107.19 87.7528 107.19 87.9572C107.19 88.1616 107.149 88.364 107.071 88.5528C106.992 88.7415 106.877 88.9129 106.732 89.057L102.333 93.4561Z" fill="#66757F"/>
<path d="M82.1111 113.946C85.2222 113.946 99.2222 115.501 99.2222 115.501C99.2222 115.501 100.778 129.501 100.778 132.612C100.778 135.724 97.6667 135.724 96.1111 134.168C94.5556 132.612 89.8889 124.835 89.8889 124.835C89.8889 124.835 82.1111 120.168 80.5556 118.612C79 117.057 79 113.946 82.1111 113.946ZM85.2222 89.1176C89.8889 89.0569 124.111 90.6125 124.111 90.6125C124.111 90.6125 125.548 124.835 125.608 129.501C125.667 134.168 121.31 135.727 119.6 129.503C117.89 123.279 111.667 103.057 111.667 103.057C111.667 103.057 89.9589 96.186 85.2144 95.1205C79 93.7236 80.554 89.1767 85.2222 89.1176Z" fill="#55ACEE"/>
<path d="M121 84.3903C124.111 81.2792 131.889 79.7236 133.444 81.2792C135 82.8348 133.444 90.6125 130.333 93.7236C127.222 96.8348 100.778 121.724 100.778 121.724C100.778 121.724 90.6667 128.724 88.3333 126.39C86 124.057 93 113.946 93 113.946C93 113.946 117.889 87.5014 121 84.3903Z" fill="#CCD6DD"/>
<path d="M100.778 113.946C100.778 113.946 101.556 114.724 94.5555 121.724C87.5555 128.724 86.7778 127.946 86.7778 127.946C86.7778 127.946 86 127.168 93 120.168C100 113.168 100.778 113.946 100.778 113.946ZM124.111 85.9458C125.349 85.9458 126.536 86.4375 127.411 87.3126C128.286 88.1878 128.778 89.3748 128.778 90.6125H130.03C130.207 90.1225 130.333 89.6091 130.333 89.0569C130.333 87.8192 129.842 86.6323 128.966 85.7571C128.091 84.8819 126.904 84.3903 125.667 84.3903C125.114 84.3903 124.601 84.5163 124.111 84.6936V85.9458Z" fill="#66757F"/>
</g>
<defs>
<clipPath id="clip0_0_1058">
<rect width="56" height="56" fill="white" transform="translate(79 79.7236)"/>
</clipPath>
</defs>
</svg>
