<svg width="169" height="51" viewBox="0 0 169 51" fill="none" xmlns="http://www.w3.org/2000/svg">
<g clip-path="url(#clip0_610_670)">
<path fill-rule="evenodd" clip-rule="evenodd" d="M162.498 50.564H6.2523C2.80639 50.564 0 47.746 0 44.314V6.81396C0 3.36945 2.80639 0.563965 6.2523 0.563965H162.498C165.941 0.563965 168.75 3.36945 168.75 6.81396V44.314C168.75 47.746 165.941 50.564 162.498 50.564Z" fill="black"/>
<path fill-rule="evenodd" clip-rule="evenodd" d="M162.498 1.56459C165.388 1.56459 167.753 3.92431 167.753 6.81396V44.314C167.753 47.2036 165.403 49.5633 162.498 49.5633H6.2523C3.36209 49.5633 0.996518 47.2036 0.996518 44.314V6.81396C0.996518 3.92431 3.34656 1.56459 6.2523 1.56459H162.498ZM162.498 0.563965H6.2523C2.80639 0.563965 0 3.38192 0 6.81396V44.314C0 47.7585 2.80639 50.564 6.2523 50.564H162.498C165.941 50.564 168.75 47.7585 168.75 44.314V6.81396C168.75 3.38192 165.941 0.563965 162.498 0.563965Z" fill="black"/>
<path d="M88.8981 17.1039C87.7712 17.1039 86.8213 16.708 86.07 15.9287C85.3249 15.1712 84.909 14.127 84.9276 13.0609C84.9276 11.9231 85.3125 10.9599 86.07 10.1962C86.8182 9.41688 87.7681 9.021 88.895 9.021C90.0095 9.021 90.9594 9.41688 91.7231 10.1962C92.4806 10.9848 92.8655 11.9481 92.8655 13.0609C92.8531 14.2018 92.4682 15.165 91.7231 15.9256C90.975 16.7111 90.025 17.1039 88.8981 17.1039ZM55.3675 17.1039C54.2654 17.1039 53.3093 16.7143 52.527 15.9443C51.7509 15.1775 51.3566 14.208 51.3566 13.064C51.3566 11.92 51.7509 10.9505 52.527 10.1837C53.2937 9.41376 54.2499 9.02411 55.3675 9.02411C55.9139 9.02411 56.4447 9.13322 56.9538 9.35454C57.4536 9.56962 57.8603 9.86264 58.1614 10.2211L58.2359 10.3115L57.3947 11.1407L57.3077 11.0378C56.8328 10.4705 56.1964 10.1931 55.3551 10.1931C54.6038 10.1931 53.9488 10.4611 53.4086 10.9911C52.8653 11.5241 52.589 12.2224 52.589 13.0671C52.589 13.9119 52.8653 14.6101 53.4086 15.1432C53.9488 15.6731 54.6038 15.9412 55.3551 15.9412C56.156 15.9412 56.8297 15.6731 57.3543 15.1432C57.6647 14.8315 57.8572 14.3951 57.9255 13.8433H55.2278V12.6775H59.0834L59.099 12.7835C59.1269 12.9798 59.1549 13.1825 59.1549 13.3695C59.1549 14.4449 58.832 15.3146 58.1925 15.9568C57.4661 16.7174 56.5161 17.1039 55.3675 17.1039ZM99.9498 16.9387H98.7608L95.1193 11.0877L95.1504 12.1413V16.9356H93.9614V9.18933H95.318L95.3553 9.24855L98.7794 14.7598L98.7484 13.7093V9.18933H99.9498V16.9387ZM79.9636 16.9387H78.7591V10.3552H76.6699V9.18933H82.0498V10.3552H79.9605V16.9387H79.9636ZM75.6889 16.9387H74.4875V9.18933H75.6889V16.9387ZM68.9368 16.9387H67.7354V10.3552H65.6462V9.18933H71.0261V10.3552H68.9368V16.9387ZM64.8856 16.9262H60.2786V9.18933H64.8856V10.3552H61.4832V12.4811H64.5534V13.6345H61.4832V15.7604H64.8856V16.9262ZM86.9516 15.1276C87.4887 15.6669 88.1406 15.9381 88.8981 15.9381C89.6773 15.9381 90.3137 15.6731 90.8446 15.1276C91.3723 14.5977 91.6393 13.9025 91.6393 13.064C91.6393 12.2255 91.3723 11.5272 90.8477 11.0004C90.3106 10.4611 89.6556 10.1899 88.9012 10.1899C88.122 10.1899 87.4856 10.4549 86.9579 11.0004C86.4301 11.5303 86.1631 12.2255 86.1631 13.064C86.1631 13.9025 86.427 14.6008 86.9516 15.1276Z" fill="white"/>
<path fill-rule="evenodd" clip-rule="evenodd" d="M84.816 27.7587C81.8823 27.7587 79.5043 29.9938 79.5043 33.0767C79.5043 36.1315 81.8979 38.3946 84.816 38.3946C87.7497 38.3946 90.1277 36.144 90.1277 33.0767C90.1277 29.9938 87.7497 27.7587 84.816 27.7587ZM84.816 36.2874C83.211 36.2874 81.8296 34.9532 81.8296 33.0642C81.8296 31.1471 83.2141 29.841 84.816 29.841C86.421 29.841 87.8025 31.1471 87.8025 33.0642C87.8056 34.9657 86.421 36.2874 84.816 36.2874ZM73.2272 27.7587C70.2935 27.7587 67.9155 29.9938 67.9155 33.0767C67.9155 36.1315 70.309 38.3946 73.2272 38.3946C76.1609 38.3946 78.5389 36.144 78.5389 33.0767C78.5389 29.9938 76.1578 27.7587 73.2272 27.7587ZM73.2272 36.2874C71.6222 36.2874 70.2408 34.9532 70.2408 33.0642C70.2408 31.1471 71.6253 29.841 73.2272 29.841C74.8322 29.841 76.2137 31.1471 76.2137 33.0642C76.2137 34.9657 74.8322 36.2874 73.2272 36.2874ZM59.4374 29.3828V31.6334H64.8173C64.6528 32.8959 64.2368 33.8279 63.6004 34.467C62.8119 35.2587 61.5949 36.1191 59.4498 36.1191C56.1436 36.1191 53.5576 33.4383 53.5576 30.1185C53.5576 26.7986 56.1436 24.1178 59.4498 24.1178C61.2348 24.1178 62.5356 24.8254 63.501 25.7294L65.0905 24.1334C63.7494 22.8429 61.9644 21.8547 59.4622 21.8547C54.9266 21.8547 51.1206 25.5642 51.1206 30.106C51.1206 34.6602 54.9235 38.3572 59.4622 38.3572C61.9116 38.3572 63.7494 37.553 65.2023 36.038C66.6831 34.5511 67.1519 32.4532 67.1519 30.7606C67.1519 30.2338 67.1115 29.76 67.0277 29.3579H59.4343C59.4374 29.3547 59.4374 29.3828 59.4374 29.3828ZM115.842 31.1347C115.398 29.9408 114.057 27.7463 111.306 27.7463C108.58 27.7463 106.314 29.9002 106.314 33.0642C106.314 36.0505 108.556 38.3822 111.57 38.3822C113.991 38.3822 115.401 36.8953 115.981 36.0224L114.184 34.813C113.588 35.7014 112.759 36.2843 111.582 36.2843C110.393 36.2843 109.561 35.7419 109.009 34.6727L116.09 31.7269C116.09 31.73 115.842 31.1347 115.842 31.1347ZM108.621 32.9115C108.565 30.8572 110.21 29.813 111.387 29.813C112.315 29.813 113.088 30.2712 113.352 30.9383L108.621 32.9115ZM102.868 38.0642H105.193V22.4408H102.868V38.0642ZM99.0498 28.9401H98.966C98.4413 28.3136 97.4448 27.7463 96.172 27.7463C93.5301 27.7463 91.0963 30.081 91.0963 33.0798C91.0963 36.0661 93.5177 38.3728 96.172 38.3728C97.4293 38.3728 98.4413 37.8024 98.966 37.1633H99.0498V37.9271C99.0498 39.9564 97.9695 41.0505 96.2279 41.0505C94.8029 41.0505 93.9182 40.0218 93.5581 39.1615L91.5371 40.0093C92.1176 41.4121 93.6667 43.1484 96.2248 43.1484C98.9505 43.1484 101.26 41.5368 101.26 37.606V28.0642H99.0622V28.9401C99.0653 28.9401 99.0498 28.9401 99.0498 28.9401ZM96.38 36.2874C94.775 36.2874 93.4339 34.9408 93.4339 33.0798C93.4339 31.2032 94.775 29.8441 96.38 29.8441C97.9695 29.8441 99.2019 31.2188 99.2019 33.0798C99.2174 34.9408 97.9726 36.2874 96.38 36.2874ZM126.729 22.4408H121.169V38.0642H123.494V32.1478H126.732C129.306 32.1478 131.836 30.2743 131.836 27.3005C131.836 24.3267 129.315 22.4408 126.729 22.4408ZM126.797 29.9657H123.491V24.6041H126.797C128.539 24.6041 129.523 26.0474 129.523 27.2849C129.523 28.51 128.526 29.9657 126.797 29.9657ZM141.155 27.7307C139.466 27.7307 137.725 28.4819 137.004 30.1185L139.066 30.9788C139.51 30.1185 140.323 29.8254 141.183 29.8254C142.388 29.8254 143.604 30.5486 143.632 31.8391V32.0044C143.216 31.7675 142.304 31.4059 141.211 31.4059C138.985 31.4059 136.728 32.6278 136.728 34.9189C136.728 37.0168 138.554 38.3635 140.587 38.3635C142.149 38.3635 143.008 37.6559 143.545 36.836H143.629V38.0455H145.871V32.0605C145.871 29.2737 143.809 27.7307 141.155 27.7307ZM140.863 36.2874C140.103 36.2874 139.038 35.9133 139.038 34.9532C139.038 33.7438 140.367 33.2855 141.5 33.2855C142.524 33.2855 143.008 33.5069 143.617 33.8123C143.449 35.2151 142.27 36.2749 140.863 36.2874ZM154.048 28.0642L151.378 34.841H151.294L148.528 28.0642H146.026L150.177 37.5374L147.811 42.8024H150.232L156.618 28.0642H154.048ZM133.118 38.0642H135.443V22.4408H133.118V38.0642Z" fill="white"/>
<path fill-rule="evenodd" clip-rule="evenodd" d="M12.9892 9.98089C12.6291 10.3705 12.4211 10.9659 12.4211 11.7452V39.3855C12.4211 40.1648 12.6291 40.7602 13.0016 41.1343L13.0978 41.2184L28.5206 25.7321V25.3861L13.0854 9.89673L12.9892 9.98089Z" fill="url(#paint0_linear_610_670)"/>
<path fill-rule="evenodd" clip-rule="evenodd" d="M33.6516 30.91L28.5075 25.7448V25.3832L33.6516 20.218L33.7633 20.2866L39.848 23.7592C41.5896 24.7442 41.5896 26.3714 39.848 27.3689L33.7633 30.8415L33.6516 30.91Z" fill="url(#paint1_linear_610_670)"/>
<path fill-rule="evenodd" clip-rule="evenodd" d="M33.7638 30.8414L28.5081 25.564L12.9891 41.1469C13.5572 41.7579 14.5102 41.8264 15.5751 41.231L33.7638 30.8414Z" fill="url(#paint2_linear_610_670)"/>
<path fill-rule="evenodd" clip-rule="evenodd" d="M33.7638 20.2865L15.5751 9.91245C14.5102 9.30148 13.5541 9.38565 12.9891 9.99662L28.5081 25.564L33.7638 20.2865Z" fill="url(#paint3_linear_610_670)"/>
<path opacity="0.2" fill-rule="evenodd" clip-rule="evenodd" d="M33.652 30.7292L15.5873 41.0347C14.5783 41.6176 13.678 41.5771 13.0975 41.0472L13.0013 41.1438L13.0975 41.228C13.678 41.7548 14.5783 41.7984 15.5873 41.2155L33.7762 30.8415L33.652 30.7292Z" fill="black"/>
<path opacity="0.12" fill-rule="evenodd" clip-rule="evenodd" d="M39.848 27.188L33.6361 30.7292L33.7478 30.8414L39.8325 27.3688C40.7048 26.8701 41.1332 26.2155 41.1332 25.564C41.0805 26.1625 40.6365 26.7298 39.848 27.188Z" fill="black"/>
<path opacity="0.25" fill-rule="evenodd" clip-rule="evenodd" d="M15.5752 10.0936L39.8486 23.9402C40.6371 24.386 41.0811 24.9689 41.1494 25.5643C41.1494 24.9128 40.721 24.2582 39.8486 23.7594L15.5752 9.91277C13.8336 8.91215 12.4211 9.74756 12.4211 11.7457V11.9265C12.4211 9.92524 13.8336 9.10542 15.5752 10.0936Z" fill="white"/>
</g>
<defs>
<linearGradient id="paint0_linear_610_670" x1="27.1372" y1="11.447" x2="2.4192" y2="18.0061" gradientUnits="userSpaceOnUse">
<stop stop-color="#00A0FF"/>
<stop offset="0.00657" stop-color="#00A1FF"/>
<stop offset="0.2601" stop-color="#00BEFF"/>
<stop offset="0.5122" stop-color="#00D2FF"/>
<stop offset="0.7604" stop-color="#00DFFF"/>
<stop offset="1" stop-color="#00E3FF"/>
</linearGradient>
<linearGradient id="paint1_linear_610_670" x1="42.1192" y1="25.5641" x2="11.997" y2="25.5641" gradientUnits="userSpaceOnUse">
<stop stop-color="#FFE000"/>
<stop offset="0.4087" stop-color="#FFBD00"/>
<stop offset="0.7754" stop-color="#FFA500"/>
<stop offset="1" stop-color="#FF9C00"/>
</linearGradient>
<linearGradient id="paint2_linear_610_670" x1="30.906" y1="28.4356" x2="10.9525" y2="61.8812" gradientUnits="userSpaceOnUse">
<stop stop-color="#FF3A44"/>
<stop offset="1" stop-color="#C31162"/>
</linearGradient>
<linearGradient id="paint3_linear_610_670" x1="9.08122" y1="0.787441" x2="17.9833" y2="15.7248" gradientUnits="userSpaceOnUse">
<stop stop-color="#32A071"/>
<stop offset="0.0685" stop-color="#2DA771"/>
<stop offset="0.4762" stop-color="#15CF74"/>
<stop offset="0.8009" stop-color="#06E775"/>
<stop offset="1" stop-color="#00F076"/>
</linearGradient>
<clipPath id="clip0_610_670">
<rect width="168.75" height="50" fill="white" transform="translate(0 0.563965)"/>
</clipPath>
</defs>
</svg>
