<svg width="96" height="61" viewBox="0 0 96 61" fill="none" xmlns="http://www.w3.org/2000/svg">
<rect x="0.162842" y="0.563965" width="94.9541" height="60" rx="10" fill="#F8F8F8"/>
<g clip-path="url(#clip0_0_1167)">
<path d="M45.9382 30.2773V37.6056H43.6133V19.508H49.7792C50.5152 19.4926 51.2469 19.6231 51.9322 19.892C52.6175 20.1609 53.2427 20.5629 53.7719 21.0747C54.3063 21.5554 54.7317 22.145 55.0194 22.8038C55.307 23.4626 55.4503 24.1753 55.4397 24.8941C55.455 25.6167 55.3139 26.3341 55.026 26.9971C54.7381 27.6601 54.3103 28.253 53.7719 28.7351C52.6937 29.7633 51.3628 30.2768 49.7792 30.2759H45.9382V30.2773ZM45.9382 21.7361V28.0536H49.837C50.2644 28.0662 50.6897 27.9896 51.0858 27.8284C51.4819 27.6673 51.84 27.4253 52.1373 27.1178C52.4329 26.8304 52.6679 26.4866 52.8284 26.1067C52.9889 25.7269 53.0716 25.3187 53.0716 24.9064C53.0716 24.494 52.9889 24.0858 52.8284 23.706C52.6679 23.3261 52.4329 22.9823 52.1373 22.6949C51.8438 22.381 51.4869 22.133 51.0903 21.9675C50.6938 21.8019 50.2665 21.7225 49.837 21.7346H45.9382V21.7361Z" fill="#5F6368"/>
<path d="M60.7969 24.819C62.5153 24.819 63.8717 25.2782 64.8661 26.1966C65.8606 27.115 66.3573 28.3741 66.3563 29.9741V37.6056H64.1326V35.8873H64.0315C63.0688 37.3024 61.7885 38.01 60.1905 38.01C58.8264 38.01 57.6851 37.6056 56.7667 36.797C56.326 36.4258 55.9736 35.961 55.7353 35.4364C55.497 34.9118 55.3787 34.3407 55.3892 33.7646C55.3892 32.4833 55.8734 31.4643 56.8418 30.7076C57.8103 29.951 59.1031 29.5717 60.7204 29.5698C62.1009 29.5698 63.2378 29.8225 64.1311 30.3279V29.7965C64.1338 29.4037 64.049 29.0153 63.8829 28.6594C63.7168 28.3035 63.4736 27.989 63.1709 27.7388C62.5561 27.1841 61.7549 26.8815 60.9269 26.8911C59.6283 26.8911 58.6006 27.4389 57.844 28.5344L55.7964 27.2449C56.9227 25.6276 58.5895 24.819 60.7969 24.819ZM57.7891 33.8151C57.7875 34.111 57.8567 34.403 57.9908 34.6667C58.1249 34.9304 58.3202 35.1583 58.5602 35.3313C59.0744 35.7358 59.7126 35.9501 60.3666 35.9378C61.3477 35.9362 62.2881 35.5457 62.9817 34.8519C63.7518 34.127 64.1369 33.2765 64.1369 32.3004C63.412 31.7228 62.4012 31.434 61.1045 31.434C60.1601 31.434 59.3727 31.6616 58.7421 32.117C58.1053 32.5791 57.7891 33.1408 57.7891 33.8151Z" fill="#5F6368"/>
<path d="M79.1213 25.2233L71.3584 43.064H68.9584L71.8392 36.8215L66.7347 25.2233H69.2617L72.9511 34.1184H73.0016L76.59 25.2233H79.1213Z" fill="#5F6368"/>
<path d="M36.5435 28.6976C36.5444 27.9891 36.4845 27.2818 36.3644 26.5836H26.5597V30.5878H32.1754C32.0605 31.2273 31.8172 31.837 31.4604 32.38C31.1035 32.923 30.6404 33.3881 30.0989 33.7473V36.3465H33.4504C35.4128 34.5371 36.5435 31.8614 36.5435 28.6976Z" fill="#4285F4"/>
<path d="M26.5596 38.8576C29.3653 38.8576 31.7277 37.9363 33.4504 36.3479L30.0989 33.7487C29.1661 34.3812 27.9647 34.7422 26.5596 34.7422C23.8478 34.7422 21.5461 32.9141 20.723 30.4506H17.2704V33.1292C18.1357 34.8512 19.4626 36.2987 21.103 37.3102C22.7433 38.3218 24.6325 38.8575 26.5596 38.8576Z" fill="#34A853"/>
<path d="M20.723 30.4506C20.2879 29.1597 20.2879 27.7618 20.723 26.4709V23.7923H17.2704C16.5424 25.2409 16.1633 26.8396 16.1633 28.4608C16.1633 30.082 16.5424 31.6807 17.2704 33.1292L20.723 30.4506Z" fill="#FBBC04"/>
<path d="M26.5596 22.1794C28.0423 22.1551 29.475 22.7153 30.548 23.7389L33.5154 20.7715C31.6337 19.0041 29.141 18.0338 26.5596 18.064C24.6325 18.064 22.7433 18.5998 21.103 19.6113C19.4626 20.6228 18.1357 22.0704 17.2704 23.7923L20.723 26.4709C21.5461 24.0075 23.8478 22.1794 26.5596 22.1794Z" fill="#EA4335"/>
</g>
<defs>
<clipPath id="clip0_0_1167">
<rect width="62.9541" height="25" fill="white" transform="translate(16.1628 18.064)"/>
</clipPath>
</defs>
</svg>
