<svg width="139" height="61" viewBox="0 0 139 61" fill="none" xmlns="http://www.w3.org/2000/svg">
<rect x="0.397461" y="0.563965" width="137.738" height="60" rx="10" fill="#F8F8F8"/>
<g clip-path="url(#clip0_0_1117)">
<path d="M39.2052 21.246C39.1848 21.0969 39.0546 21.0143 38.9465 21.0053C38.8393 20.9963 36.7386 20.9644 36.7386 20.9644C36.7386 20.9644 34.9818 19.2583 34.8082 19.0847C34.6347 18.9112 34.2958 18.9636 34.164 19.0028C34.1623 19.0037 33.834 19.1052 33.2815 19.2763C33.189 18.9767 33.053 18.6083 32.859 18.2382C32.2336 17.0446 31.3175 16.4134 30.2106 16.4118C30.209 16.4118 30.2082 16.4118 30.2066 16.4118C30.1296 16.4118 30.0535 16.4192 29.9765 16.4257C29.9438 16.3864 29.911 16.3479 29.8767 16.3103C29.3944 15.7945 28.7764 15.5432 28.0355 15.5653C26.6061 15.6062 25.1825 16.6386 24.0282 18.4724C23.2161 19.7626 22.598 21.3835 22.4228 22.6385C20.7814 23.1469 19.6336 23.5022 19.6082 23.5104C18.7798 23.7707 18.7536 23.7961 18.6455 24.5771C18.5653 25.1673 16.3975 41.9302 16.3975 41.9302L34.5643 45.0722L42.4381 43.1147C42.4381 43.1147 39.2257 21.395 39.2052 21.246ZM32.3719 19.5579C31.9536 19.6872 31.4779 19.8346 30.9622 19.9942C30.9515 19.2705 30.8656 18.2636 30.5283 17.3934C31.613 17.5989 32.1468 18.826 32.3719 19.5579ZM30.0117 20.289C29.0596 20.5837 28.0207 20.9054 26.9786 21.228C27.2717 20.1056 27.8276 18.9881 28.5103 18.2554C28.7641 17.9828 29.1194 17.6791 29.5402 17.5055C29.9356 18.3307 30.0215 19.499 30.0117 20.289ZM28.0641 16.5166C28.3998 16.5092 28.6822 16.5829 28.9237 16.7417C28.5373 16.9423 28.164 17.2305 27.8136 17.6062C26.9057 18.5804 26.2099 20.0925 25.9323 21.5513C25.067 21.819 24.2205 22.0818 23.4412 22.3225C23.9332 20.0262 25.8578 16.5804 28.0641 16.5166Z" fill="#95BF47"/>
<path d="M38.9473 21.0061C38.8401 20.9971 36.7394 20.9652 36.7394 20.9652C36.7394 20.9652 34.9826 19.2591 34.809 19.0855C34.7444 19.0209 34.6568 18.9873 34.5651 18.9734L34.5659 45.0714L42.4389 43.1148C42.4389 43.1148 39.2265 21.3958 39.2061 21.2468C39.1856 21.0978 39.0546 21.0151 38.9473 21.0061Z" fill="#5E8E3E"/>
<path d="M30.2008 25.0544L29.2864 28.4755C29.2864 28.4755 28.2664 28.0114 27.0572 28.0875C25.284 28.1997 25.2651 29.3179 25.2832 29.5987C25.3798 31.1288 29.4051 31.4628 29.6311 35.0469C29.8087 37.8664 28.1354 39.7951 25.7244 39.9474C22.8305 40.1299 21.2374 38.423 21.2374 38.423L21.8506 35.8148C21.8506 35.8148 23.4543 37.0248 24.7379 36.9437C25.5763 36.8905 25.8759 36.2086 25.8456 35.7264C25.7195 33.7305 22.4416 33.8484 22.2345 30.5688C22.0601 27.8092 23.8726 25.0126 27.8717 24.7605C29.4125 24.6614 30.2008 25.0544 30.2008 25.0544Z" fill="white"/>
<path d="M52.8067 32.2183C51.9014 31.727 51.4361 31.3129 51.4361 30.7437C51.4361 30.0194 52.0824 29.5541 53.0917 29.5541C54.2667 29.5541 55.3157 30.0454 55.3157 30.0454L56.1431 27.5104C56.1431 27.5104 55.3823 26.9152 53.1429 26.9152C50.0265 26.9152 47.8666 28.6999 47.8666 31.2089C47.8666 32.6315 48.8751 33.718 50.2205 34.4934C51.307 35.1137 51.6951 35.5539 51.6951 36.2002C51.6951 36.8725 51.1519 37.4157 50.1434 37.4157C48.6404 37.4157 47.2211 36.6395 47.2211 36.6395L46.3417 39.1745C46.3417 39.1745 47.6531 40.0539 49.8592 40.0539C53.0666 40.0539 55.3685 38.4762 55.3685 35.631C55.3677 34.1061 54.2041 33.0197 52.8067 32.2183Z" fill="black"/>
<path d="M65.5842 26.89C64.0064 26.89 62.7649 27.6403 61.8084 28.7779L61.7564 28.7519L63.127 21.5878H59.5575L56.092 39.8216H59.6614L60.851 33.5889C61.3163 31.2349 62.5318 29.7872 63.6702 29.7872C64.4716 29.7872 64.7826 30.3304 64.7826 31.1066C64.7826 31.5979 64.7307 32.1931 64.6275 32.6843L63.2829 39.8225H66.8525L68.2488 32.4513C68.4042 31.675 68.508 30.7445 68.508 30.1233C68.5065 28.1055 67.4461 26.89 65.5842 26.89Z" fill="black"/>
<path d="M76.576 26.89C72.2821 26.89 69.438 30.7697 69.438 35.0886C69.438 37.8558 71.1445 40.0799 74.3521 40.0799C78.5678 40.0799 81.4129 36.3042 81.4129 31.8813C81.4129 29.3211 79.9124 26.89 76.576 26.89ZM74.8173 37.3394C73.6016 37.3394 73.0842 36.3049 73.0842 35.0115C73.0842 32.9685 74.145 29.6321 76.0847 29.6321C77.3521 29.6321 77.7652 30.7185 77.7652 31.779C77.7652 33.977 76.7059 37.3394 74.8173 37.3394Z" fill="black"/>
<path d="M90.5427 26.89C88.1334 26.89 86.7662 29.0109 86.7662 29.0109H86.715L86.9221 27.0971H83.7667C83.6118 28.3906 83.3265 30.3556 83.0427 31.8301L80.5596 44.8908H84.1291L85.1113 39.6146H85.1895C85.1895 39.6146 85.9218 40.0799 87.2845 40.0799C91.4742 40.0799 94.2155 35.7869 94.2155 31.4412C94.2155 29.0369 93.1547 26.89 90.5427 26.89ZM87.1287 37.3906C86.2021 37.3906 85.6537 36.8733 85.6537 36.8733L86.2488 33.5369C86.6629 31.3129 87.8265 29.8383 89.0683 29.8383C90.1547 29.8383 90.4906 30.8468 90.4906 31.8042C90.4906 34.1061 89.12 37.3906 87.1287 37.3906Z" fill="black"/>
<path d="M99.3106 21.7689C98.173 21.7689 97.2676 22.6742 97.2676 23.8378C97.2676 24.8983 97.9399 25.6225 98.9486 25.6225H99.0003C100.113 25.6225 101.069 24.8722 101.095 23.5536C101.095 22.5191 100.397 21.7689 99.3106 21.7689Z" fill="black"/>
<path d="M94.3192 39.8216H97.8877L100.32 27.175H96.7241L94.3192 39.8216Z" fill="black"/>
<path d="M109.398 27.149H106.915L107.044 26.5538C107.251 25.3383 107.975 24.2519 109.165 24.2519C109.8 24.2519 110.302 24.4329 110.302 24.4329L111.001 21.6397C111.001 21.6397 110.38 21.3296 109.061 21.3296C107.793 21.3296 106.527 21.6917 105.569 22.5191C104.354 23.5536 103.785 25.0533 103.5 26.5538L103.397 27.149H101.742L101.224 29.8391H102.88L100.992 39.8224H104.562L106.45 29.8391H108.907L109.398 27.149Z" fill="black"/>
<path d="M117.984 27.175C117.984 27.175 115.753 32.7963 114.751 35.8648H114.699C114.631 34.8767 113.82 27.175 113.82 27.175H110.069L112.217 38.7871C112.269 39.0454 112.243 39.2013 112.139 39.3823C111.725 40.1838 111.027 40.96 110.199 41.5292C109.527 42.0205 108.777 42.3306 108.182 42.5377L109.165 45.5639C109.889 45.4089 111.389 44.8137 112.656 43.6241C114.286 42.0984 115.786 39.7445 117.337 36.5371L121.708 27.1742H117.984V27.175Z" fill="black"/>
</g>
<defs>
<clipPath id="clip0_0_1117">
<rect width="105.738" height="30" fill="white" transform="translate(16.3975 15.564)"/>
</clipPath>
</defs>
</svg>
