<svg width="153" height="61" viewBox="0 0 153 61" fill="none" xmlns="http://www.w3.org/2000/svg">
<rect x="0.637329" y="0.563965" width="151.725" height="60" rx="10" fill="#F8F8F8"/>
<g clip-path="url(#clip0_0_1133)">
<path d="M41.2591 33.5892C39.5895 40.2856 32.8072 44.3609 26.1101 42.691C19.4156 41.0215 15.3403 34.2388 17.0106 27.5428C18.6793 20.8457 25.4616 16.7699 32.1568 18.4395C38.8536 20.109 42.9286 26.8924 41.2591 33.5892Z" fill="#F7931A"/>
<path d="M34.6459 28.7846C34.8947 27.1213 33.6283 26.2272 31.8967 25.6307L32.4584 23.3776L31.0869 23.0359L30.5401 25.2296C30.1795 25.1397 29.8092 25.055 29.4413 24.971L29.992 22.7628L28.6214 22.421L28.0593 24.6733C27.7608 24.6054 27.4679 24.5382 27.1835 24.4675L27.1851 24.4604L25.2937 23.9882L24.9288 25.453C24.9288 25.453 25.9464 25.6862 25.9249 25.7007C26.4804 25.8393 26.5808 26.2069 26.564 26.4983L25.9241 29.0651C25.9624 29.0748 26.012 29.0889 26.0667 29.1108C26.021 29.0994 25.9722 29.0869 25.9218 29.0748L25.0249 32.6705C24.957 32.8392 24.7847 33.0923 24.3964 32.9962C24.4101 33.0162 23.3996 32.7474 23.3996 32.7474L22.7187 34.3173L24.5035 34.7622C24.8355 34.8454 25.1609 34.9325 25.4812 35.0146L24.9136 37.2934L26.2835 37.6352L26.8456 35.3806C27.2198 35.4821 27.5831 35.5759 27.9386 35.6642L27.3784 37.9083L28.7499 38.2501L29.3174 35.9755C31.6561 36.4181 33.4146 36.2396 34.1549 34.1244C34.7513 32.4213 34.1252 31.4389 32.8947 30.7982C33.7908 30.5916 34.4658 30.0022 34.6459 28.7846ZM31.5123 33.1787C31.0885 34.8818 28.221 33.9611 27.2913 33.7302L28.0444 30.7111C28.9741 30.9431 31.9553 31.4025 31.5123 33.1787ZM31.9365 28.76C31.5498 30.3092 29.1631 29.5221 28.3889 29.3291L29.0717 26.5909C29.846 26.7839 32.3393 27.144 31.9365 28.76Z" fill="white"/>
<path d="M53.2667 25.6284C54.2803 25.6284 55.1561 25.81 55.892 26.1667C56.6315 26.5268 57.2416 27.012 57.7311 27.6221C58.2139 28.2354 58.5732 28.9522 58.8053 29.7737C59.0357 30.5975 59.1514 31.483 59.1514 32.431C59.1514 33.8873 58.8846 35.263 58.3459 36.5599C57.8072 37.8587 57.0764 38.9852 56.1467 39.9461C55.2178 40.9059 54.121 41.6625 52.8562 42.2215C51.5933 42.7809 50.2203 43.0606 48.7461 43.0606C48.5554 43.0606 48.2203 43.0551 47.7468 43.0453C47.2734 43.0356 46.7293 42.9867 46.1199 42.9043C45.5067 42.8188 44.8582 42.6922 44.1735 42.5227C43.4891 42.3563 42.8391 42.1231 42.227 41.827L47.7004 18.8289L52.6026 18.0692L50.6429 26.2304C51.0624 26.0413 51.4851 25.8948 51.9069 25.7882C52.3292 25.6831 52.7823 25.6284 53.2667 25.6284ZM49.1546 39.1715C49.8929 39.1715 50.5886 38.9899 51.2421 38.6333C51.8976 38.2763 52.4632 37.7942 52.937 37.1938C53.4108 36.5907 53.7858 35.9115 54.0593 35.1525C54.3327 34.3935 54.471 33.6017 54.471 32.7779C54.471 31.7658 54.3018 30.9764 53.9647 30.4057C53.6276 29.8373 53.0038 29.5514 52.098 29.5514C51.8011 29.5514 51.4187 29.608 50.9445 29.7092C50.4687 29.8166 50.0429 30.0397 49.6613 30.3752L47.5746 39.0423C47.7004 39.0645 47.8117 39.0856 47.9066 39.1055C47.9996 39.127 48.1023 39.1423 48.2047 39.1528C48.3129 39.1649 48.4367 39.1712 48.5863 39.1712C48.7359 39.1712 48.923 39.1715 49.1546 39.1715Z" fill="#4D4D4D"/>
<path d="M64.2353 42.6203H59.5529L63.5072 25.9811H68.2215L64.2353 42.6203ZM66.5137 23.9538C65.8602 23.9538 65.2677 23.7593 64.7419 23.3695C64.2118 22.982 63.9493 22.3855 63.9493 21.5816C63.9493 21.1394 64.0392 20.7246 64.2173 20.3332C64.3982 19.9426 64.6345 19.6062 64.9306 19.3203C65.2263 19.0367 65.5688 18.8102 65.9579 18.6395C66.3493 18.4715 66.7657 18.3875 67.2094 18.3875C67.8626 18.3875 68.452 18.582 68.9797 18.9719C69.5055 19.3637 69.7699 19.9601 69.7699 20.7597C69.7699 21.2035 69.6805 21.6199 69.5008 22.0105C69.3223 22.4011 69.086 22.7374 68.7899 23.0234C68.4965 23.3074 68.1508 23.5331 67.7626 23.7023C67.3708 23.873 66.9559 23.9538 66.5137 23.9538Z" fill="#4D4D4D"/>
<path d="M72.325 21.8355L77.2292 21.0757L76.0249 25.9804H81.2772L80.3288 29.8389H75.1081L73.7175 35.6591C73.5894 36.1443 73.5168 36.5974 73.4964 37.0185C73.4734 37.4415 73.5269 37.8048 73.6535 38.1106C73.7793 38.4173 74.0054 38.6536 74.3335 38.8208C74.6601 38.9907 75.1277 39.0762 75.7409 39.0762C76.246 39.0762 76.7382 39.0282 77.214 38.9329C77.687 38.8391 78.1663 38.7087 78.6514 38.538L79.0007 42.1457C78.3679 42.3778 77.6827 42.5774 76.9444 42.7453C76.205 42.9156 75.3296 42.9977 74.3179 42.9977C72.8633 42.9977 71.7355 42.7817 70.932 42.3516C70.1297 41.9184 69.5625 41.3266 69.2231 40.5774C68.8883 39.8309 68.7387 38.9704 68.7805 38.0009C68.8239 37.029 68.9703 36.0075 69.2231 34.9318L72.325 21.8355Z" fill="#4D4D4D"/>
<path d="M81.0709 35.9759C81.0709 34.5427 81.303 33.1912 81.7666 31.926C82.2295 30.6596 82.8963 29.5522 83.7615 28.6018C84.6236 27.6561 85.674 26.9069 86.9103 26.3569C88.1407 25.81 89.5184 25.5343 91.0368 25.5343C91.9872 25.5343 92.836 25.6241 93.5828 25.8042C94.3328 25.9858 95.0113 26.2206 95.625 26.5151L94.0102 30.1869C93.5883 30.0158 93.1504 29.8651 92.6977 29.7283C92.2446 29.5889 91.6915 29.5217 91.0372 29.5217C89.4743 29.5217 88.2388 30.0604 87.3193 31.1342C86.4033 32.2088 85.9419 33.6552 85.9419 35.4697C85.9419 36.545 86.174 37.4146 86.6396 38.0798C87.1029 38.745 87.9587 39.0759 89.2013 39.0759C89.8145 39.0759 90.4063 39.0118 90.9731 38.8868C91.5442 38.7602 92.0485 38.6009 92.4926 38.4126L92.8422 42.1766C92.25 42.4063 91.5969 42.6137 90.8805 42.7953C90.1626 42.9707 89.3079 43.0617 88.3169 43.0617C87.0087 43.0617 85.9013 42.8703 84.9955 42.4934C84.0892 42.1106 83.3404 41.6024 82.7506 40.9586C82.1576 40.3133 81.7319 39.5598 81.4686 38.695C81.2053 37.831 81.0709 36.9232 81.0709 35.9759Z" fill="#4D4D4D"/>
<path d="M101.871 43.0617C100.754 43.0617 99.7831 42.8914 98.9597 42.5543C98.1386 42.2172 97.4586 41.7442 96.9207 41.1309C96.382 40.5208 95.9789 39.7977 95.7027 38.9645C95.4266 38.1317 95.2938 37.2095 95.2938 36.1989C95.2938 34.9314 95.4973 33.6642 95.9086 32.4006C96.318 31.1342 96.9254 29.9963 97.7293 28.985C98.5269 27.9721 99.5109 27.144 100.669 26.4983C101.827 25.8569 103.158 25.5343 104.653 25.5343C105.751 25.5343 106.716 25.705 107.551 26.0421C108.382 26.3784 109.066 26.8553 109.607 27.4655C110.142 28.0788 110.549 28.7987 110.822 29.633C111.098 30.4643 111.234 31.3889 111.234 32.4002C111.234 33.6638 111.033 34.931 110.635 36.1986C110.236 37.4599 109.644 38.6005 108.863 39.6141C108.083 40.6254 107.108 41.4532 105.937 42.0961C104.767 42.7391 103.411 43.0617 101.871 43.0617ZM104.212 29.5221C103.517 29.5221 102.904 29.7237 102.378 30.1217C101.851 30.5244 101.408 31.0307 101.051 31.6412C100.69 32.2545 100.423 32.9232 100.242 33.6502C100.062 34.3787 99.9745 35.0673 99.9745 35.7216C99.9745 36.7775 100.145 37.5997 100.48 38.1915C100.819 38.7802 101.429 39.0762 102.315 39.0762C103.012 39.0762 103.622 38.8763 104.151 38.4739C104.675 38.0743 105.118 37.5677 105.478 36.956C105.837 36.3458 106.106 35.6751 106.287 34.947C106.464 34.2209 106.555 33.5283 106.555 32.8752C106.555 31.8221 106.385 30.9979 106.047 30.4069C105.71 29.8182 105.097 29.5221 104.212 29.5221Z" fill="#4D4D4D"/>
<path d="M116.336 42.6203H111.65L115.604 25.9811H120.321L116.336 42.6203ZM118.611 23.9538C117.958 23.9538 117.366 23.7593 116.841 23.3695C116.313 22.982 116.049 22.3855 116.049 21.5816C116.049 21.1394 116.14 20.7246 116.318 20.3332C116.497 19.9426 116.734 19.6062 117.031 19.3203C117.325 19.0367 117.67 18.8102 118.059 18.6395C118.448 18.4715 118.864 18.3875 119.306 18.3875C119.961 18.3875 120.552 18.582 121.079 18.9719C121.606 19.3637 121.872 19.9601 121.872 20.7597C121.872 21.2035 121.777 21.6199 121.6 22.0105C121.423 22.4011 121.186 22.7374 120.891 23.0234C120.594 23.3074 120.252 23.5331 119.863 23.7023C119.471 23.873 119.055 23.9538 118.611 23.9538Z" fill="#4D4D4D"/>
<path d="M123.695 26.7378C124.051 26.6338 124.448 26.5089 124.879 26.3729C125.312 26.237 125.796 26.1104 126.337 25.9964C126.872 25.8788 127.475 25.7835 128.139 25.7096C128.803 25.6343 129.559 25.5975 130.399 25.5975C132.869 25.5975 134.571 26.3167 135.511 27.7506C136.45 29.1846 136.612 31.1471 136.003 33.6345L133.849 42.6188H129.136L131.223 33.8236C131.351 33.2744 131.451 32.7435 131.524 32.2248C131.599 31.7107 131.595 31.2576 131.508 30.8654C131.424 30.4779 131.228 30.1607 130.924 29.915C130.615 29.6733 130.148 29.5518 129.515 29.5518C128.905 29.5518 128.283 29.6174 127.649 29.744L124.58 42.6184H119.865L123.695 26.7378Z" fill="#4D4D4D"/>
</g>
<defs>
<clipPath id="clip0_0_1133">
<rect width="119.725" height="25" fill="white" transform="translate(16.6373 18.064)"/>
</clipPath>
</defs>
</svg>
