<svg width="163" height="61" viewBox="0 0 163 61" fill="none" xmlns="http://www.w3.org/2000/svg">
<rect x="0.0113525" y="0.563965" width="162.316" height="60" rx="10" fill="#F8F8F8"/>
<g clip-path="url(#clip0_0_1179)">
<path fill-rule="evenodd" clip-rule="evenodd" d="M67.4333 37.62C62.6175 41.174 55.6357 43.064 49.6233 43.064C41.1974 43.064 33.6095 39.9492 27.8672 34.7643C27.4169 34.3568 27.8185 33.8009 28.3604 34.1161C34.5552 37.7211 42.2169 39.8924 50.129 39.8924C55.4667 39.8924 61.3344 38.7842 66.7334 36.4941C67.5477 36.1493 68.2306 37.0308 67.4333 37.62Z" fill="#F79C34"/>
<path fill-rule="evenodd" clip-rule="evenodd" d="M69.4377 35.3313C68.8212 34.5429 65.3661 34.9578 63.8135 35.1438C63.3432 35.2007 63.2702 34.7894 63.6939 34.4919C66.4506 32.5554 70.9681 33.1143 71.493 33.7632C72.0216 34.4166 71.3535 38.9459 68.771 41.1068C68.3731 41.439 67.9951 41.2618 68.1715 40.8233C68.7533 39.3711 70.0541 36.1213 69.4377 35.3313Z" fill="#F79C34"/>
<path fill-rule="evenodd" clip-rule="evenodd" d="M63.9228 20.8133V18.9322C63.9243 18.6457 64.1398 18.4552 64.3997 18.456L72.8322 18.4552C73.1017 18.4552 73.3187 18.6509 73.3187 18.93V20.5431C73.3158 20.814 73.0877 21.1669 72.6838 21.7273L68.3155 27.9641C69.9367 27.9265 71.6517 28.1694 73.1253 28.997C73.4575 29.1838 73.5469 29.4606 73.5727 29.7316V31.7389C73.5727 32.0158 73.27 32.3354 72.9511 32.1693C70.3561 30.8094 66.912 30.661 64.0416 32.1856C63.7485 32.3421 63.4422 32.0261 63.4422 31.7493V29.8408C63.4422 29.5359 63.4481 29.0132 63.7559 28.5481L68.816 21.288L64.41 21.2872C64.1406 21.2872 63.9243 21.0953 63.9228 20.8133Z" fill="#333E47"/>
<path fill-rule="evenodd" clip-rule="evenodd" d="M33.1636 32.5643H30.5981C30.3537 32.5488 30.1588 32.3657 30.1389 32.1309L30.1411 18.9639C30.1411 18.7011 30.3626 18.4907 30.6365 18.4907L33.0255 18.4899C33.275 18.5025 33.4758 18.6915 33.4913 18.9322V20.6509H33.5401C34.1624 18.9883 35.3355 18.2124 36.9162 18.2124C38.5204 18.2124 39.5267 18.9883 40.245 20.6509C40.8674 18.9883 42.2804 18.2124 43.7887 18.2124C44.8666 18.2124 46.0397 18.6561 46.758 19.6535C47.5724 20.7623 47.4055 22.3688 47.4055 23.7819L47.4026 32.0911C47.4026 32.3532 47.1818 32.5643 46.9079 32.5643H44.3461C44.0877 32.5481 43.8854 32.3443 43.8854 32.0918L43.8847 25.1115C43.8847 24.5578 43.9327 23.1728 43.8124 22.6464C43.6211 21.759 43.0468 21.5095 42.3048 21.5095C41.6817 21.5095 41.035 21.9251 40.7714 22.5896C40.5079 23.2555 40.5322 24.3629 40.5322 25.1115V32.0911C40.5322 32.3532 40.3107 32.5643 40.0376 32.5643H37.475C37.2174 32.5481 37.0144 32.3443 37.0144 32.0918L37.0114 25.1115C37.0114 23.6431 37.2514 21.4829 35.4315 21.4829C33.5873 21.4829 33.6597 23.5877 33.6597 25.1115L33.6582 32.0911C33.6582 32.3532 33.4367 32.5643 33.1636 32.5643Z" fill="#333E47"/>
<path fill-rule="evenodd" clip-rule="evenodd" d="M80.601 20.9004C78.7096 20.9004 78.59 23.4762 78.59 25.0834C78.59 26.6906 78.5664 30.1265 80.5781 30.1265C82.5656 30.1265 82.6615 27.3558 82.6615 25.6659C82.6615 24.5578 82.6128 23.2274 82.2776 22.1746C81.9904 21.2599 81.4153 20.9004 80.601 20.9004ZM80.5781 18.2124C84.3854 18.2124 86.4444 21.4829 86.4444 25.6386C86.4444 29.6548 84.1698 32.8419 80.5781 32.8419C76.8418 32.8419 74.8064 29.5721 74.8064 25.4998C74.8064 21.3987 76.8654 18.2124 80.5781 18.2124Z" fill="#333E47"/>
<path fill-rule="evenodd" clip-rule="evenodd" d="M91.3827 32.5643H88.8261C88.5699 32.5481 88.3661 32.3443 88.3661 32.0918L88.3617 18.9204C88.3839 18.6789 88.5965 18.4907 88.8549 18.4907L91.2343 18.4899C91.4587 18.5018 91.6433 18.6538 91.6906 18.8583V20.8723H91.7385C92.4576 19.071 93.4624 18.2124 95.2343 18.2124C96.3837 18.2124 97.5096 18.628 98.2279 19.7642C98.8983 20.817 98.8983 22.5896 98.8983 23.8645V32.1501C98.8702 32.3834 98.6606 32.5643 98.4066 32.5643H95.8352C95.5975 32.5495 95.4063 32.3746 95.3782 32.1501V25.0015C95.3782 23.5604 95.5465 21.4541 93.774 21.4541C93.1516 21.4541 92.5765 21.8697 92.2893 22.5069C91.9298 23.3108 91.8818 24.1141 91.8818 25.0015V32.0911C91.8773 32.3532 91.6559 32.5643 91.3827 32.5643Z" fill="#333E47"/>
<path fill-rule="evenodd" clip-rule="evenodd" d="M59.7863 32.5318C59.6172 32.6839 59.3728 32.6942 59.1809 32.5916C58.3289 31.8836 58.1761 31.5566 57.7103 30.8818C56.3024 32.3162 55.305 32.7466 53.4807 32.7466C51.3213 32.7466 49.641 31.4133 49.641 28.7482C49.641 26.6655 50.7698 25.2495 52.377 24.5556C53.7686 23.9443 55.7125 23.8335 57.2009 23.6667V23.3337C57.2009 22.7217 57.2488 22.0011 56.8886 21.4733C56.5763 21.0008 55.9768 20.8066 55.4489 20.8066C54.47 20.8066 53.6011 21.3079 53.387 22.3467C53.3419 22.5777 53.1736 22.8073 52.9418 22.8191L50.4545 22.5497C50.2449 22.5017 50.0116 22.3334 50.0714 22.013C50.6362 19.0385 53.2925 18.1112 55.7066 18.0861H55.8971C57.1329 18.1016 58.7113 18.4405 59.6726 19.3626C60.921 20.529 60.7999 22.0838 60.7999 23.7782V27.7744C60.7999 28.977 61.2997 29.5042 61.7685 30.1516C61.9332 30.3857 61.9693 30.6625 61.7604 30.8338C61.2362 31.2731 60.3053 32.0815 59.7937 32.5377L59.7863 32.5318ZM57.2009 26.2772C57.2009 27.2768 57.2245 28.1096 56.721 28.9985C56.3127 29.7197 55.6645 30.1642 54.9447 30.1642C53.9613 30.1642 53.3855 29.4148 53.3855 28.3037C53.3855 26.1185 55.3448 25.7213 57.2009 25.7213V26.2772Z" fill="#333E47"/>
<path fill-rule="evenodd" clip-rule="evenodd" d="M26.1574 32.5318C25.9876 32.6839 25.7425 32.6942 25.5513 32.5916C24.6986 31.8836 24.5457 31.5566 24.0806 30.8818C22.672 32.3162 21.6754 32.7466 19.8511 32.7466C17.6917 32.7466 16.0114 31.4133 16.0114 28.7482C16.0114 26.6655 17.1387 25.2495 18.7474 24.5556C20.139 23.9443 22.0829 23.8335 23.5705 23.6667V23.3337C23.5705 22.7217 23.6192 22.0011 23.2589 21.4733C22.9467 21.0008 22.3464 20.8066 21.8193 20.8066C20.8404 20.8066 19.97 21.3079 19.7573 22.3467C19.713 22.5777 19.544 22.8073 19.3114 22.8191L16.8249 22.5497C16.6145 22.5017 16.3812 22.3334 16.4418 22.013C17.0051 19.0385 19.6621 18.1112 22.077 18.0861H22.2674C23.5033 18.1016 25.0817 18.4405 26.043 19.3626C27.2906 20.529 27.1703 22.0838 27.1703 23.7782V27.7744C27.1703 28.977 27.6701 29.5042 28.1389 30.1516C28.3021 30.3857 28.3397 30.6625 28.1308 30.8338C27.6066 31.2731 26.6749 32.0815 26.1633 32.5377L26.1574 32.5318ZM23.5705 26.2772C23.5705 27.2768 23.5949 28.1096 23.0906 28.9985C22.6831 29.7197 22.0349 30.1642 21.3143 30.1642C20.331 30.1642 19.7551 29.4148 19.7551 28.3037C19.7551 26.1185 21.7152 25.7213 23.5705 25.7213V26.2772Z" fill="#333E47"/>
<path fill-rule="evenodd" clip-rule="evenodd" d="M133.967 37.2878C133.967 36.9541 133.967 36.6543 133.967 36.3206C133.967 36.0452 134.102 35.8555 134.389 35.8725C134.925 35.9485 135.683 36.0246 136.221 35.9138C136.924 35.7677 137.429 35.2693 137.727 34.5864C138.147 33.6252 138.425 32.85 138.601 32.3414L133.264 19.1204C133.174 18.896 133.147 18.4796 133.595 18.4796H135.461C135.817 18.4796 135.962 18.7055 136.041 18.927L139.911 29.6659L143.604 18.927C143.679 18.707 143.831 18.4796 144.184 18.4796H145.943C146.388 18.4796 146.363 18.8953 146.274 19.1204L140.98 32.754C140.295 34.5687 139.383 37.459 137.327 37.9611C136.297 38.2305 134.997 38.1331 134.233 37.8134C134.041 37.7167 133.967 37.4583 133.967 37.2878Z" fill="#333E47"/>
<path fill-rule="evenodd" clip-rule="evenodd" d="M131.478 31.7589C131.478 32.0047 131.277 32.2062 131.029 32.2062H129.714C129.429 32.2062 129.235 32.001 129.199 31.7589L129.067 30.8633C128.462 31.375 127.72 31.8246 126.916 32.1376C125.368 32.7385 123.585 32.8382 122.073 31.9095C120.979 31.2384 120.399 29.9265 120.399 28.5732C120.399 27.5264 120.722 26.4884 121.437 25.7346C122.391 24.7047 123.775 24.199 125.446 24.199C126.455 24.199 127.899 24.3178 128.95 24.6611V22.859C128.95 21.0266 128.178 20.2337 126.144 20.2337C124.589 20.2337 123.4 20.4685 121.745 20.9831C121.48 20.9919 121.325 20.7904 121.325 20.5445V19.5169C121.325 19.2703 121.535 19.0318 121.763 18.9595C122.945 18.4442 124.62 18.123 126.4 18.064C128.72 18.064 131.478 18.5874 131.478 22.1562V31.7589ZM128.95 29.1277V26.4086C128.067 26.1672 126.606 26.0668 126.04 26.0668C125.147 26.0668 124.168 26.2779 123.658 26.828C123.276 27.2311 123.103 27.8099 123.103 28.3695C123.103 29.093 123.353 29.8187 123.938 30.1775C124.617 30.6389 125.671 30.5828 126.661 30.3015C127.613 30.0313 128.506 29.5536 128.95 29.1277Z" fill="#333E47"/>
<path fill-rule="evenodd" clip-rule="evenodd" d="M112.08 20.2743C114.999 20.2743 115.794 22.5696 115.794 25.1979C115.811 26.9697 115.485 28.5496 114.567 29.454C113.881 30.131 113.114 30.3155 111.959 30.3155C110.931 30.3155 109.58 29.7796 108.57 29.0332V21.5183C109.621 20.7107 110.962 20.2743 112.08 20.2743ZM108.122 37.7595H106.36C106.113 37.7595 105.912 37.558 105.912 37.3121C105.912 31.1919 105.912 25.0709 105.912 18.9506C105.912 18.7048 106.113 18.5032 106.36 18.5032H107.709C107.992 18.5032 108.186 18.7085 108.223 18.9506L108.364 19.9126C109.628 18.7912 111.254 18.0721 112.804 18.0721C117.144 18.0721 118.571 21.6483 118.571 25.3669C118.571 29.3455 116.388 32.5422 112.696 32.5422C111.141 32.5422 109.687 31.9685 108.57 30.9719V37.3121C108.57 37.558 108.368 37.7595 108.122 37.7595Z" fill="#333E47"/>
</g>
<defs>
<clipPath id="clip0_0_1179">
<rect width="130.316" height="25" fill="white" transform="translate(16.0114 18.064)"/>
</clipPath>
</defs>
</svg>
