<svg width="126" height="61" viewBox="0 0 126 61" fill="none" xmlns="http://www.w3.org/2000/svg">
<rect y="0.563965" width="125.939" height="60" rx="10" fill="#F8F8F8"/>
<g clip-path="url(#clip0_0_1146)">
<path d="M51.0083 23.1768H45.8273C45.4727 23.1768 45.1712 23.4344 45.1159 23.7844L43.0205 37.07C42.9788 37.3322 43.1818 37.5685 43.4477 37.5685H45.9212C46.2758 37.5685 46.5773 37.3109 46.6326 36.9602L47.1977 33.3768C47.2523 33.0261 47.5545 32.7685 47.9083 32.7685H49.5485C52.9614 32.7685 54.9311 31.117 55.4455 27.8443C55.6773 26.4125 55.4553 25.2875 54.7848 24.4996C54.0485 23.6344 52.7424 23.1768 51.0083 23.1768ZM51.6061 28.0291C51.3227 29.8882 49.9023 29.8882 48.5288 29.8882H47.747L48.2955 26.4162C48.328 26.2064 48.5098 26.0518 48.722 26.0518H49.0803C50.0159 26.0518 50.8985 26.0518 51.3545 26.5852C51.6265 26.9034 51.7098 27.3761 51.6061 28.0291Z" fill="#253B80"/>
<path d="M66.4954 27.9693H64.0144C63.803 27.9693 63.6204 28.1238 63.5879 28.3337L63.478 29.0276L63.3045 28.7761C62.7674 27.9965 61.5697 27.7359 60.3742 27.7359C57.6326 27.7359 55.2909 29.8124 54.8348 32.7253C54.5977 34.1784 54.9348 35.5677 55.7591 36.5367C56.5151 37.4276 57.597 37.7988 58.8841 37.7988C61.0932 37.7988 62.3182 36.3784 62.3182 36.3784L62.2076 37.0677C62.1659 37.3314 62.3689 37.5677 62.6333 37.5677H64.8682C65.2235 37.5677 65.5235 37.3102 65.5795 36.9594L66.9204 28.4677C66.9629 28.2064 66.7606 27.9693 66.4954 27.9693ZM63.0371 32.7981C62.7977 34.2155 61.6727 35.167 60.2379 35.167C59.5174 35.167 58.9417 34.9359 58.572 34.4981C58.2053 34.0632 58.0659 33.4443 58.1826 32.7549C58.4061 31.3496 59.55 30.367 60.9629 30.367C61.6674 30.367 62.2401 30.6011 62.6174 31.0427C62.9954 31.489 63.1454 32.1117 63.0371 32.7981Z" fill="#253B80"/>
<path d="M79.7091 27.9693H77.2159C76.978 27.9693 76.7546 28.0875 76.6197 28.2852L73.1811 33.3503L71.7235 28.4829C71.6318 28.1784 71.3508 27.9693 71.0326 27.9693H68.5826C68.2849 27.9693 68.078 28.2602 68.1727 28.5405L70.9189 36.5996L68.3371 40.2443C68.1341 40.5314 68.3386 40.9261 68.6894 40.9261H71.1796C71.4159 40.9261 71.6371 40.8109 71.7712 40.617L80.0636 28.6473C80.2621 28.3609 80.0583 27.9693 79.7091 27.9693Z" fill="#253B80"/>
<path d="M87.9637 23.1768H82.7818C82.4281 23.1768 82.1265 23.4344 82.0712 23.7844L79.9758 37.07C79.9341 37.3322 80.1371 37.5685 80.4015 37.5685H83.0606C83.3076 37.5685 83.519 37.3882 83.5576 37.1428L84.1523 33.3768C84.2068 33.0261 84.5091 32.7685 84.8629 32.7685H86.5023C89.9159 32.7685 91.8849 31.117 92.4 27.8443C92.6326 26.4125 92.4091 25.2875 91.7387 24.4996C91.003 23.6344 89.6977 23.1768 87.9637 23.1768ZM88.5614 28.0291C88.2788 29.8882 86.8584 29.8882 85.4841 29.8882H84.7031L85.2523 26.4162C85.2849 26.2064 85.4652 26.0518 85.678 26.0518H86.0364C86.9712 26.0518 87.8546 26.0518 88.3106 26.5852C88.5826 26.9034 88.6652 27.3761 88.5614 28.0291Z" fill="#179BD7"/>
<path d="M103.45 27.9693H100.97C100.758 27.9693 100.576 28.1238 100.545 28.3337L100.435 29.0276L100.261 28.7761C99.7235 27.9965 98.5265 27.7359 97.331 27.7359C94.5894 27.7359 92.2485 29.8124 91.7924 32.7253C91.556 34.1784 91.8916 35.5677 92.7159 36.5367C93.4735 37.4276 94.5538 37.7988 95.8409 37.7988C98.05 37.7988 99.275 36.3784 99.275 36.3784L99.1644 37.0677C99.1227 37.3314 99.3257 37.5677 99.5916 37.5677H101.826C102.18 37.5677 102.481 37.3102 102.536 36.9594L103.878 28.4677C103.919 28.2064 103.716 27.9693 103.45 27.9693ZM99.9916 32.7981C99.7538 34.2155 98.6272 35.167 97.1924 35.167C96.4735 35.167 95.8962 34.9359 95.5265 34.4981C95.1598 34.0632 95.0219 33.4443 95.1371 32.7549C95.3621 31.3496 96.5045 30.367 97.9174 30.367C98.6219 30.367 99.1947 30.6011 99.5719 31.0427C99.9515 31.489 100.101 32.1117 99.9916 32.7981Z" fill="#179BD7"/>
<path d="M106.375 23.5412L104.248 37.07C104.207 37.3321 104.41 37.5685 104.674 37.5685H106.812C107.167 37.5685 107.469 37.3109 107.523 36.9602L109.62 23.6753C109.662 23.4132 109.459 23.1761 109.195 23.1761H106.801C106.589 23.1768 106.408 23.3314 106.375 23.5412Z" fill="#179BD7"/>
<path d="M21.5045 40.1503L21.9007 37.6337L21.0182 37.6132H16.8038L19.7326 19.0428C19.7417 18.9867 19.7712 18.9344 19.8144 18.8973C19.8576 18.8602 19.9129 18.8397 19.9704 18.8397H27.0765C29.4356 18.8397 31.0636 19.3306 31.9136 20.2996C32.3121 20.7541 32.5659 21.2291 32.6886 21.7518C32.8174 22.3003 32.8197 22.9556 32.6939 23.7549L32.6848 23.8132V24.3253L33.0833 24.5511C33.4189 24.7291 33.6856 24.9329 33.8901 25.1662C34.231 25.5549 34.4515 26.0488 34.5447 26.6344C34.6409 27.2367 34.6091 27.9534 34.4515 28.7647C34.2697 29.6981 33.9757 30.5109 33.5788 31.1761C33.2136 31.789 32.7485 32.2973 32.1962 32.6912C31.6689 33.0655 31.0424 33.3496 30.3341 33.5314C29.6477 33.7102 28.8651 33.8003 28.0068 33.8003H27.4538C27.0583 33.8003 26.6742 33.9428 26.3727 34.1981C26.0704 34.4587 25.8704 34.8147 25.8091 35.2041L25.7674 35.4306L25.0674 39.8662L25.0356 40.0291C25.0273 40.0806 25.0129 40.1064 24.9916 40.1238C24.9727 40.1397 24.9454 40.1503 24.9189 40.1503H21.5045Z" fill="#253B80"/>
<path d="M33.4606 23.8723C33.4394 24.0079 33.4151 24.1465 33.3879 24.289C32.4507 29.1003 29.2447 30.7624 25.15 30.7624H23.0651C22.5644 30.7624 22.1424 31.1261 22.0644 31.62L20.9969 38.3897L20.6947 40.3087C20.6439 40.6329 20.8939 40.9253 21.2212 40.9253H24.9189C25.3568 40.9253 25.7288 40.6071 25.7977 40.1753L25.8341 39.9874L26.5303 35.5693L26.575 35.3268C26.6432 34.8935 27.0159 34.5753 27.4538 34.5753H28.0068C31.5894 34.5753 34.3939 33.1208 35.2136 28.9117C35.556 27.1534 35.3788 25.6852 34.4727 24.6526C34.1985 24.3412 33.8583 24.0829 33.4606 23.8723Z" fill="#179BD7"/>
<path d="M32.4803 23.4814C32.3371 23.4397 32.1894 23.4018 32.0379 23.3677C31.8856 23.3344 31.7295 23.3049 31.5689 23.2791C31.0068 23.1882 30.3909 23.145 29.7311 23.145H24.1614C24.0242 23.145 23.8939 23.1761 23.7773 23.2321C23.5205 23.3556 23.3295 23.5988 23.2833 23.8965L22.0985 31.4011L22.0644 31.62C22.1424 31.1261 22.5644 30.7624 23.0651 30.7624H25.15C29.2447 30.7624 32.4508 29.0996 33.3879 24.289C33.4159 24.1465 33.4394 24.0079 33.4606 23.8723C33.2235 23.7465 32.9667 23.639 32.6901 23.5473C32.622 23.5246 32.5515 23.5026 32.4803 23.4814Z" fill="#222D65"/>
<path d="M23.2833 23.8965C23.3295 23.5988 23.5204 23.3556 23.7773 23.2329C23.8947 23.1768 24.0242 23.1458 24.1614 23.1458H29.7311C30.3909 23.1458 31.0068 23.189 31.5689 23.2799C31.7295 23.3056 31.8856 23.3352 32.0379 23.3685C32.1894 23.4026 32.3371 23.4405 32.4803 23.4821C32.5515 23.5034 32.622 23.5253 32.6909 23.5473C32.9674 23.639 33.2242 23.7473 33.4614 23.8723C33.7401 22.0943 33.4591 20.8837 32.4977 19.7875C31.4379 18.5806 29.525 18.064 27.0773 18.064H19.9712C19.4712 18.064 19.0447 18.4276 18.9674 18.9223L16.0076 37.6837C15.9492 38.0549 16.2356 38.3897 16.6098 38.3897H20.997L22.0985 31.4011L23.2833 23.8965Z" fill="#253B80"/>
</g>
<defs>
<clipPath id="clip0_0_1146">
<rect width="93.9394" height="25" fill="white" transform="translate(16 18.064)"/>
</clipPath>
</defs>
</svg>
