<svg width="95" height="61" viewBox="0 0 95 61" fill="none" xmlns="http://www.w3.org/2000/svg">
<rect x="0.564392" y="0.563965" width="93.5984" height="60" rx="10" fill="#F8F8F8"/>
<g clip-path="url(#clip0_0_1164)">
<path d="M56.6764 20.5948C52.3071 20.5948 48.4024 22.8595 48.4024 27.0437C48.4024 31.8423 55.3275 32.1737 55.3275 34.5844C55.3275 35.5994 54.1643 36.508 52.1775 36.508C49.358 36.508 47.2506 35.2384 47.2506 35.2384L46.3489 39.4607C46.3489 39.4607 48.7766 40.5332 51.9996 40.5332C56.7767 40.5332 60.5357 38.1573 60.5357 33.9015C60.5357 28.8309 53.5818 28.5094 53.5818 26.2719C53.5818 25.4768 54.5367 24.6055 56.5177 24.6055C58.7529 24.6055 60.5766 25.5289 60.5766 25.5289L61.459 21.4508C61.459 21.4508 59.4748 20.5948 56.6764 20.5948ZM16.701 20.9026L16.5952 21.5181C16.5952 21.5181 18.4334 21.8545 20.089 22.5256C22.2207 23.2951 22.3726 23.7431 22.7316 25.1345L26.6438 40.2158H31.8881L39.9673 20.9026H34.735L29.5436 34.0337L27.4252 22.9031C27.231 21.6292 26.2469 20.9026 25.0423 20.9026H16.701ZM42.0713 20.9026L37.9667 40.2158H42.9561L47.0463 20.9026H42.0713ZM69.899 20.9026C68.6958 20.9026 68.0584 21.5467 67.5906 22.6723L60.2808 40.2158H65.5131L66.5254 37.2919H72.8998L73.5154 40.2158H78.1321L74.1045 20.9026H69.899ZM70.5794 26.1204L72.1304 33.3677H67.9753L70.5794 26.1204Z" fill="#1434CB"/>
</g>
<defs>
<clipPath id="clip0_0_1164">
<rect width="61.5984" height="20" fill="white" transform="translate(16.5644 20.564)"/>
</clipPath>
</defs>
</svg>
