<svg width="98" height="61" viewBox="0 0 98 61" fill="none" xmlns="http://www.w3.org/2000/svg">
<rect x="0.135132" y="0.563965" width="97.5022" height="60" rx="10" fill="#F8F8F8"/>
<g clip-path="url(#clip0_0_1130)">
<path d="M55.4408 28.6107H53.8081C53.7745 28.4771 53.7495 28.3221 53.7329 28.1461C53.6996 27.8037 53.6996 27.4589 53.7329 27.1165C53.7495 26.9409 53.7745 26.7861 53.8081 26.6517H57.8771V39.5363C57.6734 39.5717 57.468 39.5968 57.2617 39.6113C57.0569 39.627 56.8515 39.6353 56.646 39.6362C56.4492 39.6349 56.2525 39.6266 56.0562 39.6113C55.85 39.5966 55.6448 39.5715 55.4412 39.5359V28.6102V28.6104L55.4408 28.6107ZM69.6059 31.851C69.6059 31.382 69.543 30.9342 69.4178 30.5068C69.292 30.0802 69.1073 29.7077 68.8652 29.3894C68.6219 29.0716 68.3123 28.816 67.9356 28.6235C67.5589 28.431 67.1109 28.3345 66.5919 28.3345C65.5705 28.3345 64.7877 28.6448 64.2436 29.264C63.6994 29.8834 63.3689 30.7457 63.2515 31.851H69.606H69.6059ZM63.2265 33.7094C63.26 35.1158 63.6242 36.1458 64.3191 36.7985C65.0136 37.4514 66.0394 37.7784 67.3957 37.7784C68.5842 37.7784 69.7145 37.5688 70.7861 37.1502C70.9197 37.4013 71.0285 37.707 71.1123 38.067C71.1945 38.4175 71.245 38.7747 71.2629 39.1343C70.7108 39.3693 70.1033 39.5443 69.4424 39.6618C68.7805 39.7787 68.0481 39.8376 67.2449 39.8376C66.0724 39.8376 65.0676 39.6739 64.2309 39.3477C63.3935 39.0208 62.7029 38.5603 62.1587 37.9662C61.6146 37.372 61.2167 36.6686 60.9656 35.8564C60.7146 35.0446 60.5887 34.1528 60.5887 33.1817C60.5887 32.2273 60.71 31.3356 60.9529 30.5066C61.1953 29.6782 61.5686 28.9581 62.0704 28.347C62.5729 27.7356 63.2049 27.2502 63.9668 26.8902C64.7283 26.5302 65.6282 26.3499 66.6668 26.3499C67.5541 26.3499 68.3326 26.5009 69.0026 26.8022C69.672 27.1035 70.2331 27.518 70.6853 28.0454C71.1373 28.573 71.4805 29.2009 71.715 29.9289C71.9493 30.6575 72.0669 31.4485 72.0669 32.3027C72.0669 32.5372 72.058 32.784 72.0414 33.0434C72.0276 33.2654 72.0109 33.4873 71.9913 33.7089H63.226L63.2262 33.7092L63.2265 33.7094ZM74.806 26.6517C74.9808 26.6199 75.1567 26.5948 75.3334 26.5765C75.5004 26.5601 75.6766 26.5516 75.8608 26.5516C76.045 26.5516 76.2289 26.5601 76.4134 26.5765C76.5974 26.5935 76.765 26.6186 76.9158 26.6517C76.9656 26.9029 77.0159 27.234 77.0659 27.6437C77.1161 28.0541 77.1416 28.4012 77.1416 28.686C77.4931 28.1169 77.9578 27.6227 78.5353 27.204C79.113 26.7857 79.8538 26.5761 80.7579 26.5761C80.8918 26.5761 81.0298 26.5805 81.1722 26.5889C81.2941 26.5955 81.4159 26.6078 81.5364 26.6262C81.5697 26.7772 81.5954 26.9365 81.6119 27.1036C81.6284 27.2709 81.6368 27.4468 81.6368 27.6309C81.6368 27.832 81.6243 28.0415 81.5993 28.2587C81.5752 28.4686 81.5459 28.6779 81.5116 28.8865C81.3759 28.853 81.2366 28.8362 81.0969 28.8363H80.7576C80.3057 28.8363 79.8744 28.8992 79.4642 29.0245C79.0536 29.1503 78.6855 29.3722 78.3591 29.69C78.0329 30.0084 77.7731 30.4438 77.5809 30.9964C77.3879 31.549 77.2919 32.2606 77.2919 33.1311V39.5359C77.0882 39.5713 76.8828 39.5966 76.6764 39.6111C76.4507 39.6279 76.2454 39.636 76.0614 39.636C75.856 39.6352 75.6507 39.6269 75.4459 39.6111C75.2314 39.5955 75.0176 39.5705 74.8053 39.5361V26.6518L74.806 26.6517ZM57.1788 19.7718C57.1788 20.0724 57.1245 20.3706 57.0186 20.6519C56.7372 20.7579 56.4389 20.8122 56.1382 20.8123H56.1346C55.8339 20.8123 55.5356 20.758 55.2542 20.652C55.1481 20.3707 55.0937 20.0724 55.0937 19.7717V19.7678C55.0937 19.4579 55.1506 19.1612 55.2536 18.8874C55.535 18.7813 55.8334 18.727 56.1342 18.7272H56.1376C56.4475 18.7272 56.7441 18.7841 57.0179 18.8874C57.124 19.1688 57.1783 19.4671 57.1781 19.7678V19.7717H57.1785L57.1788 19.7718ZM60.2477 19.0749H57.8142L59.5348 17.3541C59.2642 16.9742 58.932 16.6421 58.552 16.3716L56.8311 18.0923V15.6587C56.6023 15.6202 56.3707 15.6008 56.1386 15.6006H56.1342C55.8981 15.6006 55.6669 15.6208 55.4416 15.6587V18.0923L53.7203 16.3715C53.5307 16.5064 53.3528 16.657 53.1884 16.8216L53.1876 16.8224C53.0232 16.9869 52.8728 17.1648 52.7379 17.3543L54.4591 19.0749H52.0251C52.0251 19.0749 51.9672 19.5321 51.9672 19.7684V19.7713C51.9672 20.0076 51.9872 20.2392 52.0252 20.4647H54.4593L52.7378 22.1852C53.0085 22.5651 53.3407 22.8973 53.7207 23.168L55.4417 21.4474V23.8812C55.6667 23.9189 55.8976 23.9388 56.1334 23.9391H56.1393C56.371 23.9389 56.6024 23.9195 56.831 23.8812V21.4474L58.5521 23.1684C58.7417 23.0333 58.9197 22.8828 59.0844 22.7182H59.0848C59.2491 22.5535 59.3995 22.3755 59.5344 22.186L57.8138 20.4648H60.2478C60.2856 20.2395 60.3055 20.0087 60.3055 19.7729V19.7668C60.3055 19.535 60.2861 19.3037 60.2478 19.0751V19.0749H60.2477ZM16.1351 39.1848L22.9164 28.6358H16.9387C16.8887 28.3345 16.8636 27.9999 16.8636 27.6314C16.8636 27.2799 16.8891 26.9531 16.9392 26.6515H26.6087L26.7344 26.9786L19.9029 37.5523H26.3072C26.3574 37.8872 26.3827 38.2302 26.3827 38.5817C26.3827 38.9171 26.3575 39.235 26.3074 39.5363H16.2609L16.1351 39.1844V39.1848ZM35.7001 33.4831C35.449 33.45 35.1308 33.4168 34.7457 33.3829C34.3606 33.3498 34.0341 33.3327 33.7666 33.3327C32.7283 33.3327 31.9371 33.5253 31.3933 33.9105C30.8488 34.2959 30.5772 34.8816 30.5772 35.6686C30.5772 36.1708 30.6689 36.5644 30.8532 36.8489C31.0371 37.134 31.2676 37.3512 31.5439 37.502C31.8203 37.6526 32.1255 37.7448 32.4602 37.7784C32.795 37.8118 33.1133 37.8284 33.4146 37.8284C33.7998 37.8284 34.1974 37.8075 34.6077 37.7655C35.0177 37.724 35.3819 37.661 35.7002 37.5773V33.4831H35.7001ZM35.7001 31.0472C35.7001 30.0589 35.449 29.3725 34.9468 28.9873C34.4443 28.6022 33.716 28.4096 32.7617 28.4096C32.1752 28.4096 31.6272 28.456 31.1167 28.5479C30.6115 28.6386 30.1123 28.7601 29.6219 28.9117C29.3036 28.3592 29.145 27.6982 29.145 26.9275C29.7136 26.7436 30.3414 26.6013 31.0282 26.5009C31.7147 26.4003 32.376 26.3499 33.0126 26.3499C34.6868 26.3499 35.9592 26.7312 36.83 27.493C37.7004 28.2554 38.1361 29.4734 38.1361 31.1475V39.2097C37.5498 39.3436 36.8384 39.4817 36.0013 39.6241C35.1549 39.767 34.2979 39.8385 33.4395 39.8376C32.6191 39.8376 31.8779 39.7626 31.2169 39.6118C30.5553 39.4607 29.9943 39.2185 29.534 38.8831C29.0731 38.5486 28.7178 38.1215 28.4663 37.6026C28.2153 37.0834 28.0897 36.4556 28.0897 35.7187C28.0897 34.999 28.2361 34.3668 28.5292 33.8223C28.8172 33.2844 29.2255 32.8203 29.7224 32.4662C30.2247 32.1067 30.8022 31.8384 31.4553 31.6628C32.1085 31.4869 32.7947 31.3989 33.5147 31.3989C34.0505 31.3989 34.49 31.4117 34.8334 31.4368C35.1764 31.4617 35.4653 31.4911 35.6998 31.5246V31.0474L35.7001 31.0472ZM43.335 37.4261C43.6521 37.5432 43.9804 37.6274 44.3147 37.6774C44.6495 37.7278 45.0845 37.7528 45.6208 37.7528C46.2234 37.7528 46.7757 37.6568 47.278 37.4642C47.7805 37.272 48.2116 36.9745 48.5716 36.5725C48.9316 36.1708 49.2161 35.6646 49.4254 35.0528C49.6347 34.4421 49.7396 33.7182 49.7396 32.8805C49.7396 31.5411 49.4922 30.4779 48.9986 29.6908C48.5043 28.904 47.6964 28.5105 46.575 28.5105C46.1565 28.5105 45.7543 28.5857 45.3698 28.7366C44.9841 28.8872 44.6412 29.1134 44.3397 29.4147C44.0384 29.716 43.7957 30.0972 43.6116 30.5575C43.4269 31.0184 43.3352 31.5663 43.3352 32.2027V37.4265V37.4262L43.335 37.4261ZM40.8486 26.6514C41.0189 26.6179 41.1905 26.5928 41.3634 26.5762C41.543 26.5596 41.7232 26.5513 41.9036 26.5513C42.0705 26.5513 42.2461 26.5599 42.4307 26.5762C42.6147 26.5932 42.7905 26.6185 42.9581 26.6515C42.9746 26.6856 42.9959 26.7897 43.021 26.9657C43.0459 27.1416 43.0711 27.3299 43.0964 27.5306C43.1215 27.7317 43.1465 27.9246 43.1717 28.1083C43.1968 28.2927 43.2094 28.41 43.2094 28.4602C43.3764 28.1925 43.5775 27.9327 43.812 27.6816C44.0465 27.4303 44.3273 27.2044 44.6537 27.0037C44.9802 26.8026 45.3483 26.6437 45.7588 26.5263C46.1688 26.4092 46.6251 26.3501 47.1275 26.3501C47.8808 26.3501 48.5799 26.4758 49.2249 26.7271C49.8691 26.9786 50.4213 27.3673 50.8821 27.8949C51.3423 28.4224 51.7022 29.0923 51.9619 29.9041C52.2213 30.7168 52.351 31.6753 52.351 32.7802C52.351 34.9902 51.7523 36.7195 50.555 37.9666C49.3576 39.2142 47.6628 39.8376 45.4694 39.8376C45.1009 39.8376 44.7243 39.8125 44.3392 39.7623C43.9538 39.7119 43.6192 39.6448 43.3344 39.5615V45.4637C43.1222 45.4983 42.9087 45.5234 42.6943 45.5391C42.4681 45.5555 42.2628 45.564 42.0786 45.564C41.8733 45.5631 41.6681 45.5548 41.4634 45.5391C41.2572 45.5245 41.0518 45.4993 40.8482 45.4637V26.6515L40.8486 26.6514Z" fill="#FF4A00"/>
</g>
<defs>
<clipPath id="clip0_0_1130">
<rect width="65.5022" height="30" fill="white" transform="translate(16.1351 15.564)"/>
</clipPath>
</defs>
</svg>
